<svg width="622" height="117" viewBox="0 0 622 117" fill="none" xmlns="http://www.w3.org/2000/svg">
<path d="M32.2827 86.7812H42.6004C43.3296 86.7812 43.939 86.4167 44.1785 85.6875L74.7619 1.57812C75.0067 0.609376 74.6421 0 73.6733 0H65.4181C64.689 0 64.0848 0.364583 63.84 1.09375L46.1213 50.9792C43.3296 59.1094 40.5379 67.2396 37.6265 75.375H37.2619C34.4702 67.2396 31.5588 58.8646 28.6421 50.7344L11.0431 1.09375C10.8035 0.364583 10.1942 0 9.465 0H1.215C0.241043 0 -0.243331 0.609376 0.121253 1.57812L30.7046 85.6875C30.9494 86.4167 31.5588 86.7812 32.2827 86.7812Z" fill="#051922"/>
<path d="M125.609 6.4323C125.609 2.91668 123.063 0.489594 119.667 0.489594C116.266 0.489594 113.594 2.91668 113.594 6.4323C113.594 9.83334 116.266 12.3802 119.667 12.3802C123.063 12.3802 125.609 9.83334 125.609 6.4323ZM116.026 86.7813H123.182C124.036 86.7813 124.521 86.2969 124.521 85.4479V25.4896C124.521 24.6406 124.036 24.0313 123.182 24.0313H116.026C115.052 24.0313 114.568 24.6406 114.568 25.4896V85.4479C114.568 86.2969 115.052 86.7813 116.026 86.7813Z" fill="#051922"/>
<path d="M196.37 87.75C197.099 87.6302 197.583 87.026 197.583 86.1719V79.9844C197.583 79.1354 197.099 78.651 196.125 78.651C194.182 78.8906 192.12 79.0156 190.661 79.0156C184.474 79.0156 181.198 75.375 181.198 65.9062V1.33854C181.198 0.489583 180.713 0 179.864 0H172.703C171.729 0 171.245 0.489583 171.245 1.33854V65.7865C171.245 80.349 177.922 88.1146 189.573 88.1146C191.755 88.1146 194.307 87.9948 196.37 87.75Z" fill="#051922"/>
<path d="M261.907 87.75C262.636 87.6302 263.12 87.026 263.12 86.1719V79.9844C263.12 79.1354 262.636 78.651 261.662 78.651C259.719 78.8906 257.657 79.0156 256.198 79.0156C250.011 79.0156 246.735 75.375 246.735 65.9062V1.33854C246.735 0.489583 246.25 0 245.402 0H238.24C237.266 0 236.782 0.489583 236.782 1.33854V65.7865C236.782 80.349 243.459 88.1146 255.11 88.1146C257.292 88.1146 259.844 87.9948 261.907 87.75Z" fill="#051922"/>
<path d="M306.569 86.7812H336.183C355.845 86.7812 367.735 75.7344 367.735 56.0729V31.1927C367.735 11.2917 355.845 0 336.183 0H306.569C305.595 0 305.11 0.489583 305.11 1.33854V85.4479C305.11 86.2969 305.595 86.7812 306.569 86.7812ZM315.548 77.0729V9.46875H336.058C349.532 9.46875 357.058 16.8698 357.058 31.1927V56.0729C357.058 70.0312 349.532 77.0729 336.058 77.0729H315.548Z" fill="#051922"/>
<path d="M425.378 6.4323C425.378 2.91668 422.832 0.489594 419.436 0.489594C416.035 0.489594 413.363 2.91668 413.363 6.4323C413.363 9.83334 416.035 12.3802 419.436 12.3802C422.832 12.3802 425.378 9.83334 425.378 6.4323ZM415.795 86.7813H422.951C423.806 86.7813 424.29 86.2969 424.29 85.4479V25.4896C424.29 24.6406 423.806 24.0313 422.951 24.0313H415.795C414.821 24.0313 414.337 24.6406 414.337 25.4896V85.4479C414.337 86.2969 414.821 86.7813 415.795 86.7813Z" fill="#051922"/>
<path d="M472.592 86.7813H479.754C480.722 86.7813 481.207 86.2969 481.207 85.4479V33.8646C484.972 32.6511 490.431 31.6771 495.53 31.6771C506.451 31.6771 512.889 36.5365 512.889 49.1563V85.4479C512.889 86.2969 513.373 86.7813 514.222 86.7813H521.384C522.353 86.7813 522.837 86.2969 522.837 85.4479V48.9115C522.837 30.3438 511.795 22.6979 495.53 22.6979C487.155 22.6979 479.144 24.5209 472.228 27.4323C471.498 27.7969 471.259 28.4011 471.259 29.1302V85.4479C471.259 86.2969 471.743 86.7813 472.592 86.7813Z" fill="#051922"/>
<path d="M568.324 90.3385H558.736C558.376 106.484 571.361 116.193 589.444 116.193C605.345 116.193 620.757 108.062 620.757 92.526C620.757 83.9062 615.902 75.8958 604.251 72.5C615.902 68.7344 621.121 58.2969 621.121 48.1041C621.121 39.3646 618.09 34.2656 613.355 28.9271L620.152 20.9166L613.111 15.3333L606.678 23.0989C602.309 20.0677 595.147 18.6094 589.689 18.6094C574.272 18.6094 558.012 28.3229 558.012 48.1041C558.012 66.7969 570.876 77.7187 589.689 77.7187C600.855 77.7187 610.684 82.8177 610.684 92.526C610.684 102.964 599.882 107.089 589.564 107.089C578.642 106.969 568.324 101.99 568.324 90.3385ZM567.84 48.1041C567.84 34.1458 579.007 27.7135 589.689 27.7135C600.975 27.7135 611.413 34.5104 611.413 48.2239C611.413 59.7552 602.553 68.9791 589.809 68.9791C577.793 68.9791 568.085 61.8177 567.84 48.1041Z" fill="#051922"/>
</svg>
