<svg width="334" height="344" viewBox="0 0 334 344" fill="none" xmlns="http://www.w3.org/2000/svg">
<g clip-path="url(#clip0_540_20025)">
<path d="M58.04 194.72L161.64 236.48V104.83L58.04 146.59V194.72Z" fill="#051922"/>
<path d="M58.04 260.57L161.64 302.28V256.26V252.17L58.04 210.41V260.57Z" fill="#051922"/>
<path d="M171.75 236.49L275.35 194.74V41.75L171.75 0V236.49Z" fill="#051922"/>
<path d="M171.75 343.87L275.35 302.1V210.43L171.75 252.19V343.87Z" fill="#051922"/>
<path d="M285.46 297.98L333.39 278.66V187.04L285.46 206.36V297.98Z" fill="#051922"/>
<path d="M285.46 0.00999451V190.66L333.39 171.34V19.34L285.46 0.00999451Z" fill="#051922"/>
<path d="M0 237.18L47.93 256.59V206.34L0 187.02V237.18Z" fill="#051922"/>
<path d="M0 171.33L47.93 190.65V104.83L0 124.18V171.33Z" fill="#051922"/>
</g>
<defs>
<clipPath id="clip0_540_20025">
<rect width="333.39" height="343.87" fill="#051922"/>
</clipPath>
</defs>
</svg>
