<svg width="724" height="164" viewBox="0 0 724 164" fill="none" xmlns="http://www.w3.org/2000/svg">
<path d="M0 1.20801H12.2708L37.5208 68.8122H38.6042L63.8542 1.20801H75.5L44.1875 79.9788H30.6042L0 1.20801Z" fill="white"/>
<path d="M117.844 1.20801H129.636V79.9788H117.844V1.20801Z" fill="white"/>
<path d="M180.347 1.20801H192.139V71.7288H230.847V79.9788H180.347V1.20801Z" fill="white"/>
<path d="M273.796 1.20801H285.588V71.7288H324.296V79.9788H273.796V1.20801Z" fill="white"/>
<path d="M367.246 1.20801H398.559C420.652 1.20801 431.704 8.73926 431.704 23.7913V58.6247C431.704 72.8643 420.694 79.9788 398.684 79.9788H367.246V1.20801ZM397.85 71.958C412.892 71.958 420.413 67.432 420.413 58.3747V23.6663C420.413 20.7497 419.798 18.2861 418.579 16.2705C417.371 14.2445 415.673 12.7445 413.496 11.7705C411.314 10.8851 409.048 10.2601 406.704 9.89551C404.355 9.52051 401.605 9.33301 398.454 9.33301H379.038V71.958H397.85Z" fill="white"/>
<path d="M479.992 1.20801H491.783V79.9788H479.992V1.20801Z" fill="white"/>
<path d="M542.495 1.20801H556.703L599.558 66.2705V1.20801H609.87V79.9788H595.662L552.828 13.833V79.9788H542.495V1.20801Z" fill="white"/>
<path d="M694.455 81.1875C690.731 81.1875 687.434 81.026 684.559 80.7083C681.684 80.3854 678.669 79.7865 675.518 78.8958C671.96 77.9271 668.966 76.6875 666.539 75.1875C664.106 73.6875 662.122 71.6458 660.58 69.0625C658.966 66.3125 658.164 63.2396 658.164 59.8333V22.5625C658.164 18.0365 659.335 14.1562 661.684 10.9167C664.028 7.68229 667.268 5.33333 671.393 3.875C675.351 2.5 679.127 1.51563 682.726 0.916667C686.335 0.307292 690.247 0 694.455 0C704.481 0 713.544 0.645833 721.643 1.9375V11.0417C718.559 10.3073 714.164 9.64063 708.455 9.04167C702.757 8.43229 698.169 8.125 694.684 8.125C678.101 8.125 669.809 12.8958 669.809 22.4375V59.5833C669.809 62.1823 670.591 64.4531 672.164 66.3958C673.747 68.3281 675.914 69.7396 678.664 70.625C681.257 71.599 683.851 72.2708 686.434 72.6458C689.028 73.0104 691.945 73.1875 695.184 73.1875C700.601 73.1875 706.382 72.4583 712.539 71V43.4375H694.08V35.1875H723.455V77.5417C712.94 79.974 703.273 81.1875 694.455 81.1875Z" fill="white"/>
<path d="M69.4087 136.838H73.8462L83.867 162.63H79.8462L76.9087 154.796H65.867L62.9712 162.63H59.1587L69.4087 136.838ZM75.9504 152.15L71.5754 140.505H71.2212L66.867 152.15H75.9504Z" fill="white"/>
<path d="M119.564 136.838H127.981C129.173 136.838 130.132 136.869 130.856 136.921C131.59 136.979 132.366 137.098 133.189 137.275C134.033 137.473 134.715 137.755 135.231 138.13C135.757 138.494 136.199 138.994 136.564 139.63C136.908 140.244 137.085 141.005 137.085 141.921V147.296C137.085 149.437 136.257 150.979 134.606 151.921C132.949 152.869 130.507 153.338 127.272 153.338H123.418V162.63H119.564V136.838ZM127.793 150.9C129.46 150.9 130.793 150.604 131.793 150.005C132.804 149.395 133.314 148.421 133.314 147.088V142.4C133.314 141.692 133.126 141.109 132.751 140.65C132.387 140.182 131.861 139.854 131.168 139.671C130.501 139.505 129.944 139.4 129.501 139.359C129.054 139.307 128.46 139.275 127.71 139.275H123.376V150.9H127.793Z" fill="white"/>
<path d="M173.983 136.838H182.4C183.593 136.838 184.551 136.869 185.275 136.921C186.009 136.979 186.785 137.098 187.608 137.275C188.452 137.473 189.134 137.755 189.65 138.13C190.176 138.494 190.619 138.994 190.983 139.63C191.327 140.244 191.504 141.005 191.504 141.921V147.296C191.504 149.437 190.676 150.979 189.025 151.921C187.369 152.869 184.926 153.338 181.692 153.338H177.838V162.63H173.983V136.838ZM182.213 150.9C183.879 150.9 185.213 150.604 186.213 150.005C187.223 149.395 187.733 148.421 187.733 147.088V142.4C187.733 141.692 187.546 141.109 187.171 140.65C186.806 140.182 186.28 139.854 185.588 139.671C184.921 139.505 184.364 139.4 183.921 139.359C183.473 139.307 182.879 139.275 182.129 139.275H177.796V150.9H182.213Z" fill="white"/>
<path d="M228.403 136.838H232.257V159.921H244.924V162.63H228.403V136.838Z" fill="white"/>
<path d="M280.836 136.838H284.69V162.63H280.836V136.838Z" fill="white"/>
<path d="M333.204 163.025C325.964 163.025 322.35 160.692 322.35 156.025V143.796C322.35 138.869 325.964 136.4 333.204 136.4C335.662 136.4 338.016 136.661 340.266 137.171V140.025C337.725 139.39 335.391 139.067 333.266 139.067C332.235 139.067 331.334 139.13 330.558 139.255C329.792 139.369 329.058 139.567 328.35 139.859C326.808 140.525 326.037 141.827 326.037 143.755V155.838C326.037 158.796 328.501 160.275 333.433 160.275C335.558 160.275 337.891 159.963 340.433 159.338V162.275C338.183 162.775 335.771 163.025 333.204 163.025Z" fill="white"/>
<path d="M384.843 136.838H389.281L399.302 162.63H395.281L392.343 154.796H381.302L378.406 162.63H374.593L384.843 136.838ZM391.385 152.15L387.01 140.505H386.656L382.302 152.15H391.385Z" fill="white"/>
<path d="M441.353 139.546H432.624V136.838H453.957V139.546H445.249V162.63H441.353V139.546Z" fill="white"/>
<path d="M490.014 136.838H493.868V162.63H490.014V136.838Z" fill="white"/>
<path d="M542.423 163.026C535.215 163.026 531.61 160.692 531.61 156.026V143.838C531.61 138.911 535.215 136.442 542.423 136.442C549.699 136.442 553.34 138.896 553.34 143.797V156.026C553.34 158.526 552.329 160.317 550.319 161.401C548.303 162.484 545.673 163.026 542.423 163.026ZM542.485 160.442C547.235 160.442 549.61 158.963 549.61 156.005V143.713C549.61 140.536 547.22 138.942 542.444 138.942C540.152 138.942 538.386 139.307 537.152 140.026C535.912 140.734 535.298 141.963 535.298 143.713V156.005C535.298 158.963 537.694 160.442 542.485 160.442Z" fill="white"/>
<path d="M591.067 136.838H595.713L609.734 158.15V136.838H613.13V162.63H608.463L594.442 140.984V162.63H591.067V136.838Z" fill="white"/>
<path d="M659.001 163.026C656.803 163.026 654.178 162.817 651.126 162.401V159.172C654.194 159.838 656.897 160.172 659.23 160.172C661.189 160.172 662.616 159.958 663.522 159.526C664.423 159.083 664.876 158.265 664.876 157.067V153.734C664.876 152.625 664.553 151.849 663.918 151.401C663.277 150.942 662.168 150.713 660.585 150.713H657.564C655.048 150.713 653.257 150.213 652.189 149.213C651.132 148.203 650.605 146.63 650.605 144.505V142.442C650.605 141.041 650.918 139.901 651.543 139.026C652.168 138.151 653.215 137.505 654.689 137.088C656.158 136.661 658.178 136.442 660.751 136.442C662.47 136.442 664.678 136.588 667.376 136.88V139.776C664.361 139.333 662.053 139.109 660.46 139.109C658.001 139.109 656.376 139.349 655.585 139.817C654.762 140.333 654.355 141.172 654.355 142.338V145.276C654.355 146.166 654.673 146.817 655.314 147.234C655.965 147.651 657.09 147.859 658.689 147.859H661.772C663.548 147.859 664.928 148.078 665.918 148.505C666.918 148.922 667.616 149.562 668.022 150.422C668.439 151.286 668.647 152.437 668.647 153.88V155.755C668.647 157.588 668.303 159.036 667.626 160.088C666.96 161.146 665.923 161.901 664.522 162.359C663.116 162.802 661.277 163.026 659.001 163.026Z" fill="white"/>
</svg>
