<svg xmlns="http://www.w3.org/2000/svg" width="202" height="202" fill="none" viewBox="0 0 202 202">
  <g clip-path="url(#a)">
    <path fill="#fff" d="M32.848 196.916c-3.006 0-5.466-2.459-5.466-5.466V19.707c0-3.006 2.46-5.466 5.466-5.466 3.007 0 5.466 2.46 5.466 5.466V191.45c0 3.007-2.46 5.466-5.466 5.466Zm81.991-91.419c-3.006 0-5.466-2.46-5.466-5.466V19.707c0-3.006 2.46-5.466 5.466-5.466 3.006 0 5.466 2.46 5.466 5.466v80.324c0 3.006-2.46 5.466-5.466 5.466Zm-40.995 50.804c-3.006 0-5.466-2.459-5.466-5.466V5.466C68.378 2.46 70.838 0 73.844 0c3.006 0 5.466 2.46 5.466 5.466v145.369c0 3.007-2.46 5.466-5.466 5.466Z"/>
    <path fill="#fff" d="M32.849 34.462a5.473 5.473 0 0 1-5.166-3.717 5.5 5.5 0 0 1 3.417-6.942c1.612-.547 30.063-10.878 40.886-14.813l1.858-.683 42.881 15.523c2.843 1.039 4.318 4.154 3.28 6.997a5.476 5.476 0 0 1-6.997 3.28L73.844 19.921c-7.871 2.87-37.415 13.61-39.246 14.212-.574.191-1.175.3-1.75.3v.028Zm0 30.473a5.473 5.473 0 0 1-5.166-3.717 5.5 5.5 0 0 1 3.417-6.942c1.612-.546 30.063-10.877 40.886-14.813l1.858-.683 42.881 15.524c2.843 1.038 4.318 4.154 3.28 6.996-1.039 2.843-4.154 4.319-6.997 3.28L73.844 50.396c-7.871 2.87-37.415 13.61-39.246 14.211-.574.192-1.175.3-1.75.3v.028Zm0 30.447a5.473 5.473 0 0 1-5.166-3.717 5.5 5.5 0 0 1 3.417-6.942c1.612-.547 30.063-10.878 40.886-14.813l1.858-.683 42.881 15.523c2.843 1.039 4.318 4.154 3.28 6.997a5.476 5.476 0 0 1-6.997 3.28L73.844 80.841c-7.871 2.87-37.415 13.61-39.246 14.212a5.64 5.64 0 0 1-1.75.3v.028Zm0 30.445a5.474 5.474 0 0 1-5.166-3.717 5.5 5.5 0 0 1 3.417-6.942c1.612-.547 30.063-10.878 40.886-14.813 2.842-1.011 5.985.437 6.996 3.28a5.442 5.442 0 0 1-3.28 6.996c-1.585.574-39.054 14.184-41.104 14.895a5.612 5.612 0 0 1-1.75.301Zm0 30.473a5.437 5.437 0 0 1-5.166-3.716 5.5 5.5 0 0 1 3.417-6.942c1.612-.547 30.063-10.878 40.886-14.813a5.442 5.442 0 0 1 6.996 3.279 5.442 5.442 0 0 1-3.28 6.997c-1.585.574-39.054 14.184-41.104 14.895a5.61 5.61 0 0 1-1.75.3Zm0 27.33a5.437 5.437 0 0 1-5.166-3.717 5.499 5.499 0 0 1 3.417-6.941c1.612-.547 30.063-10.878 40.886-14.813 2.842-1.012 5.985.437 6.996 3.279a5.442 5.442 0 0 1-3.28 6.997c-1.585.574-39.054 14.184-41.104 14.895a5.61 5.61 0 0 1-1.75.3Z"/>
    <path fill="#fff" d="M151.434 202H91.936c-12.982 0-23.559-10.577-23.559-23.559v-59.498c0-12.981 10.577-23.558 23.56-23.558h59.497c12.982 0 23.559 10.577 23.559 23.558v59.498c0 12.982-10.577 23.559-23.559 23.559Zm-59.498-95.656c-6.97 0-12.627 5.658-12.627 12.627v59.498c0 6.969 5.658 12.626 12.627 12.626h59.498c6.969 0 12.627-5.657 12.627-12.626v-59.498c0-6.969-5.658-12.627-12.627-12.627H91.936Z"/>
    <path fill="#fff" d="M96.418 132.361a8.91 8.91 0 1 0-8.91-8.909 8.91 8.91 0 0 0 8.91 8.909Zm50.561 0a8.91 8.91 0 1 0 0-17.819 8.91 8.91 0 1 0 0 17.819ZM96.418 182.87a8.91 8.91 0 1 0 0-17.82 8.91 8.91 0 0 0 0 17.82Zm50.561 0a8.91 8.91 0 1 0 0-17.819 8.91 8.91 0 1 0 0 17.819Z"/>
  </g>
  <defs>
    <clipPath id="a">
      <path fill="#fff" d="M0 0h202v202H0z"/>
    </clipPath>
  </defs>
</svg>
