<svg xmlns="http://www.w3.org/2000/svg" width="202" height="202" fill="none" viewBox="0 0 202 202">
  <path fill="#fff" d="M72.612 96.106H8.7a8.7 8.7 0 0 0-8.699 8.7v23.001a8.7 8.7 0 0 0 8.7 8.699h63.912a8.7 8.7 0 0 0 8.7-8.699v-23.001a8.7 8.7 0 0 0-8.7-8.7ZM31.7 143.24h-23a8.7 8.7 0 0 0-8.7 8.7v23.001a8.7 8.7 0 0 0 8.7 8.699h23a8.7 8.7 0 0 0 8.7-8.699V151.94a8.7 8.7 0 0 0-8.7-8.7Zm0-94.265h-23a8.7 8.7 0 0 0-8.7 8.7v23a8.7 8.7 0 0 0 8.7 8.7h23a8.7 8.7 0 0 0 8.7-8.7v-23a8.7 8.7 0 0 0-8.7-8.7Zm86.861 94.265H54.648a8.7 8.7 0 0 0-8.7 8.7v23.001a8.7 8.7 0 0 0 8.7 8.699h63.913a8.7 8.7 0 0 0 8.699-8.699V151.94a8.7 8.7 0 0 0-8.699-8.7Zm6.011-96.627L62.837 30.07a8.7 8.7 0 0 0-10.655 6.151L46.23 58.44a8.7 8.7 0 0 0 6.152 10.654l61.735 16.542a8.699 8.699 0 0 0 10.654-6.151l5.953-22.218a8.699 8.699 0 0 0-6.151-10.654Zm68.729 96.627h-49.935a8.7 8.7 0 0 0-8.699 8.7v23.001a8.7 8.7 0 0 0 8.699 8.699h49.935a8.7 8.7 0 0 0 8.699-8.699V151.94a8.7 8.7 0 0 0-8.699-8.7Zm-33.424-47.134H95.964a8.7 8.7 0 0 0-8.7 8.7v23.001a8.7 8.7 0 0 0 8.7 8.699h63.913a8.7 8.7 0 0 0 8.699-8.699v-23.001a8.7 8.7 0 0 0-8.699-8.7Z"/>
  <path fill="#fff" d="M67.333 109.223a4.035 4.035 0 0 1-4.04-4.04V22.04a4.035 4.035 0 0 1 4.04-4.04 4.035 4.035 0 0 1 4.04 4.04v83.143a4.035 4.035 0 0 1-4.04 4.04Zm40.4 0a4.035 4.035 0 0 1-4.04-4.04V22.04a4.034 4.034 0 0 1 4.04-4.04 4.035 4.035 0 0 1 4.04 4.04v83.143a4.035 4.035 0 0 1-4.04 4.04Z"/>
</svg>
