<svg xmlns="http://www.w3.org/2000/svg" width="202" height="202" fill="none" viewBox="0 0 202 202">
  <g clip-path="url(#a)">
    <path fill="#fff" d="M0 88.375h202c0 25.25-24.644 71.432-100.697 71.432C37.875 159.807 0 126.25 0 88.375Z"/>
    <path fill="#fff" d="M107.312 56.813H94.688v85.345h12.624V56.813Zm37.876 0h-12.626c0-6.97-5.655-12.626-12.624-12.626s-12.626 5.657-12.626 12.626H94.688c0-13.913 11.337-25.25 25.25-25.25 13.912 0 25.25 11.337 25.25 25.25Zm2.525 18.558h-17.675v25.25h17.675v-25.25Zm-75.75 0H54.288v25.25h17.675v-25.25Z"/>
    <path fill="#fff" d="M66.028 75.371H47.47v5.05h18.558v-5.05Zm89.436 0h-15.705v5.05h15.705v-5.05Z"/>
  </g>
  <defs>
    <clipPath id="a">
      <path fill="#fff" d="M0 0h202v202H0z"/>
    </clipPath>
  </defs>
</svg>
