<svg xmlns="http://www.w3.org/2000/svg" width="202" height="203" fill="none" viewBox="0 0 202 203">
  <path fill="#fff" d="M0 .884v202h202v-202H0ZM101 189.39H13.463V14.346H101V189.39Zm35.332-109.406 11.539-34.587c1.148-3.474 6.08-3.474 7.227 0l11.54 34.618c.837 2.482-1.024 5.025-3.63 5.025H139.93c-2.606-.03-4.436-2.575-3.598-5.056Zm30.306 43.8-11.54 34.587c-1.147 3.474-6.079 3.474-7.227 0l-11.539-34.618c-.838-2.482 1.023-5.025 3.629-5.025h23.078c2.606.031 4.436 2.574 3.599 5.056Z"/>
  <path fill="#fff" d="M56.238 66.552c9.303 0 16.844-7.542 16.844-16.844 0-9.303-7.541-16.844-16.844-16.844-9.302 0-16.843 7.541-16.843 16.844s7.54 16.844 16.843 16.844Zm5.708 5.026H50.53c-8.469 0-15.355 6.855-15.355 15.355v29.096a6.09 6.09 0 0 0 6.08 6.08h4.684v40.884a10.26 10.26 0 0 0 10.267 10.268 10.26 10.26 0 0 0 10.268-10.268v-40.884h4.684a6.09 6.09 0 0 0 6.08-6.08V86.933c0-8.469-6.856-15.355-15.355-15.355h.062Z"/>
</svg>
