<svg xmlns="http://www.w3.org/2000/svg" width="202" height="202" fill="none" viewBox="0 0 202 202">
  <path fill="#fff" d="M4.54 175.527a4.675 4.675 0 0 1-2.573-.786A4.515 4.515 0 0 1 0 170.988V80.202c0-1.876 1.15-3.54 2.875-4.237L195.826.31a4.532 4.532 0 0 1 4.207.484A4.515 4.515 0 0 1 202 4.546v90.787c0 1.876-1.15 3.54-2.875 4.237L6.204 175.225a4.497 4.497 0 0 1-1.665.302Zm4.539-92.238v81.041L192.92 92.246V11.204L9.079 83.288Z"/>
  <path fill="#fff" d="M34.802 190.657a4.533 4.533 0 0 1-4.54-4.539V72.635a4.533 4.533 0 0 1 4.54-4.54 4.533 4.533 0 0 1 4.54 4.54v113.483a4.533 4.533 0 0 1-4.54 4.539Zm45.393-15.131a4.533 4.533 0 0 1-4.54-4.539V52.994a4.533 4.533 0 0 1 4.54-4.539 4.533 4.533 0 0 1 4.54 4.54v117.992a4.533 4.533 0 0 1-4.54 4.539Zm45.393-15.131a4.533 4.533 0 0 1-4.539-4.54V34.807a4.533 4.533 0 0 1 4.539-4.54 4.533 4.533 0 0 1 4.539 4.54v121.048a4.533 4.533 0 0 1-4.539 4.54Zm45.393-16.131a4.533 4.533 0 0 1-4.54-4.539V17.194a4.534 4.534 0 0 1 4.54-4.54 4.533 4.533 0 0 1 4.539 4.54v122.531a4.533 4.533 0 0 1-4.539 4.539Z"/>
  <path fill="#fff" d="M8.775 186.121h36.95a4.197 4.197 0 0 0 4.206-4.207v-6.688a4.197 4.197 0 0 1 4.207-4.206h36.95a4.197 4.197 0 0 0 4.206-4.206v-6.688a4.197 4.197 0 0 1 4.207-4.207h36.95a4.197 4.197 0 0 0 4.206-4.206v-6.688a4.198 4.198 0 0 1 4.207-4.207h36.95a4.198 4.198 0 0 1 4.206 4.207v56.318H8.775a4.198 4.198 0 0 1-4.207-4.207v-6.688a4.197 4.197 0 0 1 4.207-4.206v-.121Z"/>
</svg>
