<svg xmlns="http://www.w3.org/2000/svg" width="202" height="202" fill="none" viewBox="0 0 202 202">
  <path fill="#fff" d="M52.631.172 69.596 4.72a6.89 6.89 0 0 1 4.133 3.184l4.11 7.152c1.89 3.26 6.049 4.398 9.3 2.502l7.134-4.12a6.726 6.726 0 0 1 5.167-.681l26.039 7c12.83 3.437 23.77 11.878 30.424 23.402l10.335 17.943c1.513 2.629-1.537 5.51-4.058 3.842l-9.175-6.066a27.08 27.08 0 0 0-28.534-.859l-13.763 7.96a7.276 7.276 0 0 1-5.571.734l-18.779-5.055a4.416 4.416 0 0 1-3.201-3.437l-1.437-7.455c-1.437-7.405-10.738-9.907-15.653-4.195L61.1 52.309a4.427 4.427 0 0 1-4.487 1.39L39.6 49.123a4.857 4.857 0 0 1-3.428-5.964l10.51-39.551c.706-2.603 3.353-4.145 5.95-3.437ZM85.34 73.753l14.507 3.91a5.75 5.75 0 0 1 4.149 6.425L89.338 181.35c-1.107 7.288-5.431 13.688-11.767 17.396-11.516 6.704-26.225 2.717-32.863-8.889a24.634 24.634 0 0 1-1.584-21.001l35.452-91.65c1.056-2.717 3.973-4.215 6.764-3.453Z"/>
</svg>
