<svg xmlns="http://www.w3.org/2000/svg" width="202" height="202" fill="none" viewBox="0 0 202 202">
  <path fill="#fff" d="M173.398 51.344v-5.34C173.398 20.608 152.791 0 127.393 0H75.096C49.698 0 29.091 20.607 29.091 46.005v5.166C23.781 53.307 20 58.501 20 64.563c0 6.06 3.752 11.256 9.091 13.391v78.041c0 25.398 20.607 46.005 46.005 46.005h52.297c25.398 0 46.005-20.607 46.005-46.005V77.81c5.108-2.222 8.687-7.302 8.687-13.247 0-5.946-3.579-11.025-8.687-13.248v.03ZM82.485 158.737a2.895 2.895 0 0 1-2.886 2.886 2.895 2.895 0 0 1-2.887-2.886v-28.861a2.894 2.894 0 0 1 2.886-2.886 2.894 2.894 0 0 1 2.887 2.886v28.861Zm14.43 0a2.895 2.895 0 0 1-2.886 2.886 2.895 2.895 0 0 1-2.886-2.886v-28.861a2.894 2.894 0 0 1 2.886-2.886 2.894 2.894 0 0 1 2.886 2.886v28.861Zm14.431 0a2.895 2.895 0 0 1-2.886 2.886 2.894 2.894 0 0 1-2.886-2.886v-28.861a2.894 2.894 0 0 1 2.886-2.886 2.894 2.894 0 0 1 2.886 2.886v28.861Zm14.431 0a2.895 2.895 0 0 1-2.887 2.886 2.895 2.895 0 0 1-2.886-2.886v-28.861a2.894 2.894 0 0 1 2.886-2.886 2.894 2.894 0 0 1 2.887 2.886v28.861Zm18.759-86.093c0 7.706-6.234 13.94-13.94 13.94H71.921c-7.706 0-13.94-6.234-13.94-13.94V57.26c0-7.706 6.235-13.94 13.94-13.94h58.675c7.706 0 13.94 6.234 13.94 13.94v15.383Z"/>
</svg>
