<svg xmlns="http://www.w3.org/2000/svg" width="202" height="202" fill="none" viewBox="0 0 202 202">
  <path fill="#fff" d="M201.948 154.717c-6.448 3.368-13.131 6.422-19.944 9.163-25.087 9.999-52.367 15.481-81.03 15.481-28.663 0-55.943-5.482-81.03-15.481-6.813-2.741-13.496-5.795-19.944-9.163l12.66-11.851c-1.33-6.109-1.983-12.426-1.983-18.926 0-31.457 16.107-59.18 40.463-75.34l14.148 64.715a4.888 4.888 0 0 0 4.778 3.837c2.976 0 5.273-2.662 4.83-5.612L64.452 41.291l-1.801-12.217C74.556 24.506 87.478 22 101 22c13.522 0 26.444 2.532 38.348 7.074l-1.801 12.217-10.442 70.249c-.444 2.95 1.853 5.612 4.829 5.612a4.888 4.888 0 0 0 4.778-3.837l14.148-64.714c24.382 16.133 40.463 43.882 40.463 75.339 0 6.5-.653 12.817-1.984 18.926L202 154.717h-.052Z"/>
</svg>
