<svg xmlns="http://www.w3.org/2000/svg" width="202" height="202" fill="none" viewBox="0 0 202 202">
  <path fill="#fff" d="M119.348 0h-99.19A10.154 10.154 0 0 0 10 10.157v143.736a10.154 10.154 0 0 0 10.157 10.157h72.771a54.374 54.374 0 0 1-1.286-11.828 54.558 54.558 0 0 1 3.805-20.013H37.323a4.101 4.101 0 0 1-4.106-4.107 4.1 4.1 0 0 1 4.106-4.106h62.149c6.735-11.253 17.358-19.877 30.034-24.038v-89.8A10.154 10.154 0 0 0 119.348 0Zm-15.003 101.326H37.323a4.1 4.1 0 0 1-4.106-4.106 4.101 4.101 0 0 1 4.106-4.107h67.022a4.102 4.102 0 0 1 4.107 4.107 4.101 4.101 0 0 1-4.107 4.106Zm0-30.882H37.323a4.101 4.101 0 0 1-4.106-4.107 4.101 4.101 0 0 1 4.106-4.107h67.022a4.102 4.102 0 0 1 4.107 4.107 4.102 4.102 0 0 1-4.107 4.107Zm0-30.883H37.323a4.101 4.101 0 0 1-4.106-4.106 4.101 4.101 0 0 1 4.106-4.107h67.022a4.102 4.102 0 0 1 4.107 4.107 4.102 4.102 0 0 1-4.107 4.106Z"/>
  <path fill="#fff" d="M146.645 106.447c-6.05 0-11.854 1.178-17.138 3.34-16.783 6.79-28.665 23.244-28.665 42.437 0 4.079.547 8.049 1.56 11.827 5.23 19.52 23.08 33.949 44.243 33.949 25.243 0 45.777-20.534 45.777-45.776 0-25.243-20.534-45.777-45.777-45.777Zm0 83.339c-16.618 0-30.718-10.787-35.673-25.735-1.26-3.724-1.917-7.693-1.917-11.827 0-14.566 8.296-27.214 20.452-33.429 5.119-2.656 10.951-4.134 17.138-4.134 20.753 0 37.563 16.81 37.563 37.563 0 20.752-16.81 37.562-37.563 37.562Z"/>
  <path fill="#fff" d="M142.045 173.984c-.822 0-1.67-.247-2.382-.767l-14.401-10.322c-1.834-1.314-2.272-3.887-.931-5.722 1.314-1.834 3.888-2.272 5.722-.93l11.198 8.021 21.683-28.008a4.103 4.103 0 0 1 5.75-.739c1.779 1.397 2.108 3.97.739 5.75l-24.12 31.129c-.794 1.04-2.026 1.588-3.258 1.588Z"/>
</svg>
