<svg xmlns="http://www.w3.org/2000/svg" width="203" height="202" fill="none" viewBox="0 0 203 202">
  <g clip-path="url(#a)">
    <path fill="#fff" d="M96.1 105.055 58.647 44.184H28.332v44.755h-7.184V37h41.499l39.559 64.295-6.107 3.76Z"/>
    <path fill="#fff" d="M144.471 109.197v18.439a8.727 8.727 0 0 1-8.741 8.74h-27.178c9.889 0 17.935-8.046 17.935-17.935 0-9.89-8.046-17.936-17.935-17.936-3.425 0-6.657.982-9.387 2.682-5.125 3.137-8.549 8.812-8.549 15.254 0 9.889 8.046 17.935 17.936 17.935H24.741c6.609 0 11.973-5.364 11.973-11.973 0-6.609-5.364-11.973-11.973-11.973-6.61 0-11.973 5.364-11.973 11.973 0 2.706.886 5.196 2.394 7.184L.795 124.403V64.538H24.74l35.919 35.919h75.07a8.727 8.727 0 0 1 8.741 8.74Z"/>
    <path fill="#fff" d="M42.7 124.403c0 4.597-1.748 8.788-4.622 11.973-3.257 3.688-8.022 5.986-13.338 5.986-8.836 0-16.187-6.393-17.672-14.822a16.804 16.804 0 0 1-.287-3.137c0-9.914 8.046-17.96 17.96-17.96 9.913 0 17.959 8.046 17.959 17.96Zm-17.96 11.973c6.61 0 11.973-5.364 11.973-11.973 0-6.609-5.364-11.973-11.973-11.973-6.609 0-11.973 5.364-11.973 11.973 0 2.706.886 5.196 2.395 7.184a11.997 11.997 0 0 0 9.578 4.789Z"/>
    <path fill="#fff" d="M48.687 124.402a23.86 23.86 0 0 1-3.21 11.973c-4.142 7.16-11.877 11.973-20.736 11.973-13.219 0-23.946-10.728-23.946-23.946 0-13.218 10.727-23.946 23.945-23.946 13.219 0 23.947 10.728 23.947 23.946ZM24.74 136.375c6.609 0 11.973-5.364 11.973-11.973 0-6.609-5.364-11.973-11.973-11.973-6.61 0-11.973 5.364-11.973 11.973 0 2.706.885 5.196 2.394 7.184a11.997 11.997 0 0 0 9.579 4.789Zm107.734-17.936c0 7.136-3.137 13.553-8.118 17.935a23.728 23.728 0 0 1-15.804 5.987 23.73 23.73 0 0 1-15.804-5.987c-4.981-4.382-8.118-10.799-8.118-17.935 0-7.136 3.16-13.602 8.19-17.984a23.79 23.79 0 0 1 3.208-2.394 23.717 23.717 0 0 1 12.524-3.544c6.058 0 11.542 2.25 15.757 5.938 5.004 4.382 8.165 10.824 8.165 17.984Zm-5.986 0c0-9.89-8.046-17.936-17.936-17.936-3.424 0-6.657.982-9.387 2.682-5.124 3.137-8.549 8.812-8.549 15.254 0 9.889 8.046 17.935 17.936 17.935s17.936-8.046 17.936-17.935Z"/>
    <path fill="#fff" d="M138.461 118.439a29.685 29.685 0 0 1-5.987 17.935 29.77 29.77 0 0 1-23.922 11.973 29.772 29.772 0 0 1-23.922-11.973 29.688 29.688 0 0 1-5.986-17.935c0-6.729 2.25-12.979 6.01-17.984a30.007 30.007 0 0 1 8.238-7.495 29.775 29.775 0 0 1 15.66-4.43c9.77 0 18.439 4.67 23.898 11.925a29.852 29.852 0 0 1 6.011 17.984Zm-11.973 0c0-9.89-8.046-17.936-17.936-17.936a17.74 17.74 0 0 0-9.387 2.682c-5.124 3.137-8.548 8.812-8.548 15.254 0 9.89 8.046 17.935 17.935 17.935 9.89 0 17.936-8.045 17.936-17.935Z"/>
    <path fill="#fff" d="M4.989 165.396h142.133c2.495 0 4.59-1.805 4.939-4.195.05-.17 1.946-7.998 20.006-7.998 2.744 0 4.989-2.195 4.989-4.878.049-2.17.873-7.316 7.483-7.316 6.61 0 7.433 5.146 7.483 7.365.05 2.658 2.27 4.804 4.989 4.804h.05c2.744 0 4.939-2.17 4.939-4.853 0-6.852-4.64-17.07-17.461-17.07-10.078 0-15.091 6.292-16.788 12.339-15.39 1.025-21.577 7.585-24.021 12.047H4.989c-2.744 0-4.989 2.195-4.989 4.877 0 2.683 2.245 4.878 4.989 4.878Z"/>
  </g>
  <defs>
    <clipPath id="a">
      <path fill="#fff" d="M202.5 0H.5v202h202z"/>
    </clipPath>
  </defs>
</svg>
