<svg xmlns="http://www.w3.org/2000/svg" width="202" height="202" fill="none" viewBox="0 0 202 202">
  <g clip-path="url(#a)">
    <path fill="#fff" d="M63.594 109.607H0v38.157h63.594v-38.157Z"/>
    <path fill="#fff" d="M55.963 101.976H18.417L41.31 79.082h10.81a3.838 3.838 0 0 1 3.842 3.842v19.052ZM38.157 71.451 0 109.608h63.594V75.292a3.838 3.838 0 0 0-3.84-3.84H38.156Zm132.886 76.313H44.516a7.621 7.621 0 0 1-7.632-7.632 7.621 7.621 0 0 1 7.632-7.631h126.527a7.621 7.621 0 0 1 7.631 7.631 7.622 7.622 0 0 1-7.631 7.632Z"/>
    <path fill="#fff" d="M38.64 167.478c-11.93 0-21.622-9.691-21.622-21.622h10.175c0 6.309 5.138 11.447 11.447 11.447 6.308 0 11.447-5.138 11.447-11.447h10.175c0 11.931-9.692 21.622-21.622 21.622Zm93.56 0c-11.93 0-21.622-9.691-21.622-21.622h10.175c0 6.309 5.139 11.447 11.447 11.447 6.309 0 11.447-5.138 11.447-11.447h10.175c0 11.931-9.692 21.622-21.622 21.622Z"/>
    <path fill="#fff" fill-rule="evenodd" d="M90.203 122.326h66.087a9.522 9.522 0 0 0 6.232-2.34l36.248-31.67a9.454 9.454 0 0 0 2.748-10.099l-9.081-27.269a9.429 9.429 0 0 0-6.665-6.181l-41.896-10.48a9.417 9.417 0 0 0-7.377 1.195L75.983 73.995a9.454 9.454 0 0 0-3.994 10.658l9.158 30.907a9.455 9.455 0 0 0 9.055 6.766Z" clip-rule="evenodd"/>
  </g>
  <defs>
    <clipPath id="a">
      <path fill="#fff" d="M0 0h202v202H0z"/>
    </clipPath>
  </defs>
</svg>
