<svg width="200" height="200" viewBox="0 0 200 200" fill="none" xmlns="http://www.w3.org/2000/svg">
<rect width="200" height="200" fill="white" fill-opacity="0.01"/>
<path d="M136.554 37.5107H63.737C56.1948 37.5174 48.9635 40.5165 43.6304 45.8496C38.2972 51.1827 35.2982 58.414 35.2915 65.9562V134.553C35.2982 142.095 38.2972 149.326 43.6304 154.66C48.9635 159.993 56.1948 162.992 63.737 162.998H136.554C144.096 162.993 151.328 159.994 156.661 154.661C161.995 149.327 164.993 142.095 164.999 134.553V65.9562C164.992 58.414 161.993 51.1827 156.66 45.8496C151.327 40.5165 144.096 37.5174 136.554 37.5107ZM155.277 134.553C155.277 139.519 153.305 144.281 149.793 147.793C146.282 151.304 141.52 153.277 136.554 153.277H63.737C58.7711 153.277 54.0087 151.304 50.4974 147.793C46.986 144.281 45.0134 139.519 45.0134 134.553V65.9562C45.0134 60.9904 46.986 56.228 50.4974 52.7166C54.0087 49.2053 58.7711 47.2326 63.737 47.2326H136.554C141.52 47.2326 146.282 49.2053 149.793 52.7166C153.305 56.228 155.277 60.9904 155.277 65.9562V134.553Z" fill="white"/>
<path d="M135.512 49.5654H64.7652C60.2148 49.5654 55.8508 51.3731 52.6332 54.5907C49.4155 57.8083 47.6079 62.1723 47.6079 66.7227V133.775C47.6079 138.325 49.4155 142.689 52.6332 145.907C55.8508 149.124 60.2148 150.932 64.7652 150.932H135.512C140.062 150.932 144.427 149.125 147.645 145.907C150.863 142.69 152.671 138.326 152.672 133.775V66.7227C152.672 64.4693 152.229 62.2379 151.366 60.1561C150.504 58.0742 149.24 56.1827 147.646 54.5894C146.052 52.9962 144.161 51.7324 142.078 50.8704C139.996 50.0084 137.765 49.565 135.512 49.5654ZM115.708 63.2913C116.326 63.2905 116.931 63.4732 117.445 63.8162C117.96 64.1592 118.361 64.6471 118.598 65.2181C118.835 65.7892 118.897 66.4177 118.777 67.0242C118.657 67.6307 118.36 68.1879 117.923 68.6254C117.486 69.0628 116.929 69.3609 116.322 69.4817C115.716 69.6026 115.087 69.5409 114.516 69.3045C113.945 69.068 113.457 68.6675 113.113 68.1534C112.769 67.6394 112.586 67.035 112.586 66.4167C112.586 66.0056 112.667 65.5986 112.825 65.219C112.982 64.8393 113.213 64.4944 113.504 64.2041C113.795 63.9138 114.14 63.6837 114.52 63.5271C114.9 63.3705 115.308 63.2903 115.719 63.2913H115.708ZM115.708 87.0054C116.675 87.0026 117.622 87.287 118.427 87.8226C119.233 88.3583 119.862 89.121 120.233 90.0142C120.605 90.9074 120.703 91.8908 120.515 92.8399C120.328 93.789 119.862 94.6609 119.178 95.3453C118.495 96.0296 117.623 96.4956 116.674 96.684C115.725 96.8725 114.742 96.7751 113.848 96.404C112.955 96.033 112.191 95.405 111.655 94.5998C111.119 93.7945 110.834 92.8482 110.836 91.8807C110.838 90.5871 111.353 89.347 112.269 88.4329C113.184 87.5188 114.425 87.0054 115.719 87.0054H115.708ZM92.5805 90.7033C93.1988 90.7033 93.8032 90.8867 94.3173 91.2303C94.8313 91.5739 95.2319 92.0622 95.4684 92.6335C95.7048 93.2048 95.7665 93.8334 95.6456 94.4398C95.5247 95.0461 95.2267 95.603 94.7892 96.04C94.3518 96.4769 93.7946 96.7743 93.1881 96.8945C92.5815 97.0147 91.953 96.9523 91.382 96.7152C90.811 96.4781 90.3231 96.0769 89.9801 95.5625C89.6371 95.048 89.4544 94.4434 89.4551 93.8251C89.4551 93.4139 89.5363 93.0068 89.6941 92.6271C89.8519 92.2474 90.0832 91.9026 90.3746 91.6126C90.666 91.3225 91.0118 91.0928 91.3922 90.9368C91.7727 90.7808 92.1802 90.7014 92.5913 90.7033H92.5805ZM62.5184 149.07C60.3932 149.07 58.3157 148.44 56.5487 147.259C54.7817 146.079 53.4046 144.4 52.5914 142.437C51.7783 140.473 51.5658 138.313 51.9806 136.229C52.3955 134.144 53.4192 132.23 54.9222 130.727C56.4252 129.225 58.34 128.202 60.4244 127.788C62.5089 127.373 64.6694 127.587 66.6326 128.4C68.5958 129.214 70.2736 130.592 71.4538 132.359C72.634 134.127 73.2635 136.204 73.2628 138.33C73.2619 141.179 72.1294 143.911 70.1146 145.925C68.0997 147.939 65.3674 149.07 62.5184 149.07ZM56.0983 116.571C56.099 115.605 56.386 114.662 56.9229 113.859C57.4599 113.057 58.2227 112.431 59.1149 112.062C60.0071 111.693 60.9887 111.597 61.9356 111.786C62.8825 111.975 63.7521 112.44 64.4346 113.123C65.1171 113.806 65.5818 114.676 65.7699 115.623C65.958 116.57 65.8611 117.552 65.4914 118.444C65.1217 119.336 64.4959 120.098 63.6931 120.634C62.8902 121.171 61.9464 121.457 60.9809 121.457C60.3394 121.457 59.7042 121.33 59.1116 121.085C58.519 120.839 57.9806 120.479 57.5271 120.025C57.0737 119.572 56.7141 119.033 56.469 118.44C56.2238 117.847 56.0979 117.212 56.0983 116.571ZM68.3767 91.8807C67.4103 91.8807 66.4656 91.5942 65.6621 91.0573C64.8586 90.5204 64.2323 89.7573 63.8625 88.8644C63.4927 87.9716 63.3959 86.9892 63.5844 86.0414C63.773 85.0935 64.2383 84.2229 64.9217 83.5396C65.605 82.8562 66.4756 82.3909 67.4235 82.2024C68.3713 82.0138 69.3537 82.1106 70.2465 82.4804C71.1394 82.8502 71.9025 83.4765 72.4394 84.28C72.9763 85.0835 73.2628 86.0282 73.2628 86.9946C73.2628 87.6363 73.1364 88.2716 72.8909 88.8644C72.6453 89.4573 72.2854 89.9959 71.8317 90.4496C71.378 90.9033 70.8393 91.2633 70.2465 91.5088C69.6537 91.7544 69.0183 91.8807 68.3767 91.8807ZM62.5184 74.0357C60.3933 74.0357 58.316 73.4056 56.5491 72.225C54.7821 71.0443 53.405 69.3663 52.5918 67.403C51.7786 65.4397 51.5658 63.2793 51.9804 61.1951C52.3949 59.1109 53.4182 57.1964 54.9209 55.6938C56.4235 54.1911 58.338 53.1678 60.4222 52.7533C62.5064 52.3387 64.6668 52.5515 66.6301 53.3647C68.5934 54.1779 70.2714 55.555 71.4521 57.322C72.6327 59.0889 73.2628 61.1662 73.2628 63.2913C73.2628 66.1409 72.1308 68.8738 70.1158 70.8887C68.1009 72.9037 65.368 74.0357 62.5184 74.0357ZM78.6675 108.242C77.6997 108.245 76.7529 107.961 75.9471 107.425C75.1413 106.889 74.5128 106.125 74.1413 105.232C73.7698 104.338 73.672 103.354 73.8604 102.405C74.0488 101.456 74.5148 100.584 75.1994 99.8999C75.8839 99.2158 76.7562 98.7504 77.7056 98.5628C78.655 98.3751 79.6387 98.4736 80.5321 98.8458C81.4254 99.2179 82.1881 99.847 82.7235 100.653C83.2589 101.459 83.5428 102.406 83.5392 103.374C83.5392 104.667 83.0263 105.907 82.113 106.823C81.1996 107.738 79.9605 108.254 78.6675 108.257V108.242ZM87.9716 125.796C87.058 125.796 86.1648 125.525 85.4051 125.017C84.6454 124.509 84.0533 123.788 83.7036 122.944C83.354 122.1 83.2625 121.171 83.4407 120.275C83.619 119.379 84.059 118.555 84.705 117.909C85.3511 117.263 86.1743 116.823 87.0704 116.645C87.9665 116.467 88.8954 116.558 89.7395 116.908C90.5837 117.258 91.3052 117.85 91.8128 118.609C92.3204 119.369 92.5913 120.262 92.5913 121.176C92.5937 121.784 92.4759 122.386 92.2448 122.949C92.0137 123.511 91.6737 124.022 91.2444 124.453C90.8152 124.884 90.3051 125.225 89.7434 125.458C89.1818 125.691 88.5797 125.811 87.9716 125.81V125.796ZM93.1602 112.297C92.5421 112.297 91.9378 112.113 91.4239 111.77C90.9099 111.427 90.5093 110.938 90.2728 110.367C90.0362 109.796 89.9743 109.168 90.0949 108.562C90.2155 107.955 90.5132 107.398 90.9502 106.961C91.3873 106.524 91.9442 106.227 92.5505 106.106C93.1568 105.985 93.7852 106.047 94.3563 106.284C94.9274 106.52 95.4155 106.921 95.7589 107.435C96.1023 107.949 96.2856 108.553 96.2856 109.171C96.288 109.583 96.2089 109.991 96.0528 110.372C95.8968 110.753 95.6669 111.1 95.3764 111.392C95.0859 111.683 94.7405 111.915 94.3602 112.073C93.9798 112.231 93.572 112.312 93.1602 112.311V112.297ZM93.8228 79.732C93.2043 79.7327 92.5996 79.5499 92.085 79.2068C91.5705 78.8636 91.1694 78.3756 90.9324 77.8043C90.6954 77.2331 90.6332 76.6044 90.7536 75.9978C90.8741 75.3912 91.1719 74.8339 91.6092 74.3966C92.0465 73.9593 92.6037 73.6616 93.2103 73.5411C93.8169 73.4206 94.4456 73.4828 95.0169 73.7198C95.5881 73.9568 96.0762 74.358 96.4193 74.8725C96.7625 75.387 96.9453 75.9918 96.9446 76.6102C96.946 77.0213 96.8663 77.4285 96.7101 77.8087C96.5539 78.1889 96.3242 78.5346 96.0343 78.8259C95.7443 79.1172 95.3997 79.3485 95.0202 79.5064C94.6407 79.6644 94.2338 79.7459 93.8228 79.7464V79.732ZM96.9446 61.5161C96.9474 60.5504 97.2364 59.6071 97.775 58.8055C98.3136 58.0038 99.0777 57.3798 99.9708 57.0122C100.864 56.6446 101.846 56.5499 102.793 56.74C103.74 56.9302 104.609 57.3967 105.291 58.0806C105.973 58.7645 106.437 59.6351 106.624 60.5826C106.811 61.53 106.714 62.5117 106.344 63.4037C105.973 64.2957 105.347 65.0579 104.544 65.5942C103.741 66.1304 102.796 66.4167 101.831 66.4167C101.189 66.4167 100.554 66.2903 99.9609 66.0447C99.368 65.7992 98.8294 65.4393 98.3757 64.9855C97.922 64.5318 97.562 63.9932 97.3165 63.4004C97.0709 62.8076 96.9446 62.1722 96.9446 61.5305V61.5161ZM103.264 145.83C102.645 145.831 102.041 145.648 101.526 145.305C101.012 144.962 100.611 144.474 100.374 143.903C100.137 143.332 100.074 142.703 100.194 142.097C100.315 141.49 100.612 140.933 101.049 140.496C101.486 140.058 102.043 139.76 102.649 139.639C103.255 139.519 103.884 139.58 104.455 139.817C105.027 140.053 105.515 140.454 105.859 140.968C106.202 141.482 106.386 142.086 106.386 142.704C106.387 143.116 106.308 143.523 106.152 143.904C105.996 144.285 105.767 144.631 105.477 144.923C105.187 145.214 104.842 145.446 104.462 145.604C104.082 145.762 103.675 145.844 103.264 145.844V145.83ZM137.971 149.07C136.282 149.072 134.617 148.675 133.111 147.912C131.605 147.148 130.301 146.04 129.304 144.678L103.465 119.113C103.379 119.03 103.31 118.931 103.263 118.821C103.215 118.712 103.19 118.594 103.188 118.474C103.187 118.355 103.209 118.236 103.254 118.126C103.299 118.015 103.365 117.914 103.449 117.829C103.533 117.744 103.633 117.677 103.744 117.631C103.854 117.586 103.973 117.562 104.092 117.563C104.212 117.563 104.33 117.588 104.44 117.634C104.55 117.681 104.649 117.749 104.733 117.835L127.417 140.27C127.133 138.721 127.193 137.129 127.593 135.606C127.993 134.082 128.723 132.666 129.732 131.456C130.74 130.246 132.002 129.273 133.428 128.605C134.855 127.938 136.41 127.592 137.985 127.592C138.539 127.592 139.091 127.634 139.638 127.718L117.26 105.563C117.173 105.481 117.104 105.382 117.057 105.272C117.009 105.162 116.984 105.044 116.983 104.925C116.981 104.805 117.003 104.687 117.048 104.576C117.093 104.465 117.159 104.365 117.243 104.28C117.328 104.195 117.428 104.128 117.538 104.082C117.648 104.036 117.767 104.013 117.886 104.013C118.006 104.014 118.124 104.038 118.234 104.085C118.344 104.131 118.444 104.2 118.527 104.285L143.782 129.278C145.733 130.534 147.225 132.387 148.035 134.562C148.845 136.736 148.929 139.114 148.275 141.341C147.621 143.567 146.264 145.521 144.406 146.912C142.549 148.303 140.291 149.055 137.971 149.056V149.07ZM131.558 107.663C132.176 107.663 132.781 107.846 133.295 108.19C133.809 108.533 134.209 109.021 134.446 109.593C134.682 110.164 134.744 110.793 134.623 111.399C134.502 112.005 134.204 112.562 133.767 112.999C133.329 113.436 132.772 113.734 132.166 113.854C131.559 113.974 130.93 113.912 130.359 113.674C129.788 113.437 129.301 113.036 128.958 112.522C128.615 112.007 128.432 111.403 128.433 110.784C128.434 109.956 128.763 109.162 129.349 108.577C129.935 107.991 130.73 107.663 131.558 107.663ZM129.758 85.3167C129.758 84.5041 129.999 83.7098 130.45 83.0342C130.901 82.3586 131.543 81.832 132.294 81.521C133.045 81.2101 133.871 81.1287 134.668 81.2872C135.465 81.4458 136.197 81.837 136.771 82.4116C137.346 82.9862 137.737 83.7182 137.895 84.5152C138.054 85.3121 137.973 86.1382 137.662 86.8889C137.351 87.6396 136.824 88.2812 136.149 88.7327C135.473 89.1841 134.679 89.4251 133.866 89.4251C133.326 89.426 132.791 89.3204 132.292 89.1143C131.793 88.9083 131.34 88.6057 130.958 88.2241C130.576 87.8424 130.273 87.3892 130.066 86.8903C129.86 86.3914 129.754 85.8566 129.754 85.3167H129.758ZM137.974 74.0357C135.849 74.0371 133.771 73.4082 132.003 72.2285C130.235 71.0487 128.857 69.3711 128.043 67.408C127.228 65.4448 127.015 63.2842 127.428 61.1995C127.842 59.1148 128.865 57.1997 130.367 55.6963C131.87 54.193 133.784 53.1689 135.868 52.7538C137.953 52.3386 140.114 52.551 142.077 53.364C144.041 54.177 145.719 55.5541 146.9 57.3212C148.081 59.0883 148.712 61.1659 148.712 63.2913C148.712 66.1402 147.58 68.8726 145.566 70.8875C143.552 72.9023 140.82 74.0348 137.971 74.0357H137.974Z" fill="white"/>
</svg>
