<svg width="200" height="200" viewBox="0 0 200 200" fill="none" xmlns="http://www.w3.org/2000/svg">
<rect width="200" height="200" fill="white" fill-opacity="0.01"/>
<path d="M137.701 46.2988H62.2887C57.4382 46.2988 52.7864 48.2257 49.3566 51.6555C45.9268 55.0853 44 59.7371 44 64.5875V136.062C44 140.913 45.9268 145.565 49.3566 148.994C52.7864 152.424 57.4382 154.351 62.2887 154.351H137.701C140.103 154.352 142.482 153.88 144.702 152.961C146.922 152.042 148.939 150.695 150.639 148.997C152.338 147.299 153.686 145.282 154.606 143.063C155.526 140.844 156 138.465 156 136.062V64.5875C156 62.1851 155.526 59.8062 154.606 57.5869C153.686 55.3675 152.338 53.3511 150.639 51.6528C148.939 49.9545 146.922 48.6075 144.702 47.6889C142.482 46.7703 140.103 46.2979 137.701 46.2988ZM136.817 56.4275C137.849 56.4275 138.858 56.7335 139.716 57.3068C140.574 57.8801 141.243 58.695 141.638 59.6483C142.033 60.6017 142.136 61.6507 141.935 62.6628C141.733 63.6749 141.236 64.6045 140.507 65.3342C139.777 66.0638 138.847 66.5607 137.835 66.7621C136.823 66.9634 135.774 66.8601 134.821 66.4652C133.867 66.0703 133.053 65.4015 132.479 64.5435C131.906 63.6855 131.6 62.6768 131.6 61.6449C131.6 60.9598 131.735 60.2813 131.997 59.6483C132.259 59.0153 132.644 58.4401 133.128 57.9557C133.613 57.4712 134.188 57.0869 134.821 56.8247C135.454 56.5625 136.132 56.4275 136.817 56.4275ZM116.602 60.9493C117.26 60.9493 117.904 61.1445 118.451 61.5103C118.998 61.876 119.425 62.3959 119.677 63.0041C119.929 63.6124 119.995 64.2817 119.866 64.9274C119.738 65.5731 119.421 66.1662 118.955 66.6317C118.49 67.0972 117.897 67.4143 117.251 67.5427C116.605 67.6711 115.936 67.6052 115.328 67.3533C114.72 67.1013 114.2 66.6747 113.834 66.1273C113.468 65.5799 113.273 64.9363 113.273 64.278C113.271 63.8394 113.355 63.4046 113.521 62.9988C113.688 62.5929 113.933 62.2239 114.242 61.913C114.551 61.602 114.919 61.3553 115.324 61.1869C115.729 61.0185 116.163 60.9319 116.602 60.9319V60.9493ZM101.798 53.8501C102.83 53.8501 103.839 54.1561 104.697 54.7294C105.555 55.3027 106.224 56.1176 106.619 57.0709C107.013 58.0243 107.117 59.0733 106.915 60.0854C106.714 61.0975 106.217 62.0271 105.488 62.7568C104.758 63.4864 103.828 63.9834 102.816 64.1847C101.804 64.386 100.755 64.2827 99.8017 63.8878C98.8483 63.4929 98.0335 62.8241 97.4602 61.9662C96.8869 61.1082 96.5809 60.0994 96.5809 59.0675C96.5809 57.6838 97.1306 56.3567 98.109 55.3783C99.0875 54.3998 100.415 53.8501 101.798 53.8501ZM93.2626 71.8119C93.921 71.8119 94.5645 72.0071 95.1119 72.3729C95.6593 72.7386 96.086 73.2585 96.3379 73.8667C96.5899 74.475 96.6558 75.1443 96.5273 75.79C96.3989 76.4357 96.0819 77.0288 95.6164 77.4943C95.1508 77.9598 94.5577 78.2769 93.912 78.4053C93.2663 78.5337 92.597 78.4678 91.9888 78.2159C91.3805 77.9639 90.8607 77.5373 90.4949 76.9899C90.1291 76.4425 89.9339 75.7989 89.9339 75.1406C89.9335 74.7033 90.0192 74.2703 90.1864 73.8662C90.3535 73.4621 90.5987 73.095 90.9078 72.7858C91.217 72.4766 91.5842 72.2314 91.9882 72.0643C92.3923 71.8972 92.8254 71.8114 93.2626 71.8119ZM91.9513 90.1493C92.6095 90.15 93.2527 90.3458 93.7997 90.7119C94.3466 91.0781 94.7727 91.5982 95.0241 92.2065C95.2755 92.8148 95.341 93.484 95.2121 94.1295C95.0833 94.775 94.766 95.3678 94.3003 95.8329C93.8347 96.2981 93.2416 96.6148 92.5959 96.7429C91.9503 96.8711 91.2812 96.805 90.6732 96.5529C90.0652 96.3009 89.5455 95.8742 89.1799 95.3269C88.8143 94.7796 88.6191 94.1362 88.6191 93.478C88.6191 93.0405 88.7053 92.6074 88.8728 92.2033C89.0403 91.7992 89.2858 91.4321 89.5953 91.123C89.9048 90.8138 90.2721 90.5687 90.6764 90.4016C91.0807 90.2346 91.5139 90.1488 91.9513 90.1493ZM67.7287 53.8501C69.2683 53.8501 70.7733 54.3067 72.0534 55.162C73.3336 56.0174 74.3313 57.2331 74.9205 58.6555C75.5097 60.0779 75.6638 61.6431 75.3635 63.1531C75.0631 64.6631 74.3217 66.0502 73.2331 67.1388C72.1444 68.2275 70.7574 68.9689 69.2473 69.2693C67.7373 69.5696 66.1722 69.4155 64.7498 68.8263C63.3274 68.2371 62.1116 67.2394 61.2562 65.9592C60.4009 64.6791 59.9443 63.1741 59.9443 61.6345C59.9443 59.5699 60.7645 57.59 62.2243 56.1301C63.6842 54.6703 65.6642 53.8501 67.7287 53.8501ZM53.0435 117.725C53.0435 116.693 53.3495 115.684 53.9228 114.826C54.4961 113.968 55.3109 113.3 56.2643 112.905C57.2176 112.51 58.2667 112.406 59.2787 112.608C60.2908 112.809 61.2205 113.306 61.9501 114.036C62.6798 114.765 63.1767 115.695 63.378 116.707C63.5793 117.719 63.476 118.768 63.0811 119.722C62.6862 120.675 62.0175 121.49 61.1595 122.063C60.3015 122.636 59.2928 122.942 58.2609 122.942C56.8771 122.942 55.5501 122.393 54.5716 121.414C53.5932 120.436 53.0435 119.109 53.0435 117.725ZM66.1357 147.471C65.1038 147.471 64.095 147.165 63.237 146.592C62.379 146.018 61.7103 145.204 61.3154 144.25C60.9205 143.297 60.8172 142.248 61.0185 141.236C61.2198 140.224 61.7167 139.294 62.4464 138.564C63.1761 137.835 64.1057 137.338 65.1178 137.136C66.1299 136.935 67.1789 137.038 68.1323 137.433C69.0856 137.828 69.9005 138.497 70.4738 139.355C71.0471 140.213 71.353 141.222 71.353 142.254C71.353 143.636 70.8043 144.962 69.8274 145.94C68.8504 146.919 67.5251 147.469 66.1426 147.471H66.1357ZM66.1357 91.4154C65.1038 91.4154 64.095 91.1094 63.237 90.5361C62.379 89.9628 61.7103 89.1479 61.3154 88.1946C60.9205 87.2412 60.8172 86.1922 61.0185 85.1801C61.2198 84.168 61.7167 83.2384 62.4464 82.5087C63.1761 81.779 64.1057 81.2821 65.1178 81.0808C66.1299 80.8795 67.1789 80.9828 68.1323 81.3777C69.0856 81.7726 69.9005 82.4413 70.4738 83.2993C71.0471 84.1573 71.353 85.1661 71.353 86.198C71.353 87.5805 70.8043 88.9065 69.8274 89.8848C68.8504 90.863 67.5251 91.4135 66.1426 91.4154H66.1357ZM77.1026 108.862C76.0707 108.862 75.062 108.556 74.204 107.983C73.346 107.41 72.6773 106.595 72.2824 105.642C71.8875 104.688 71.7842 103.639 71.9855 102.627C72.1868 101.615 72.6837 100.685 73.4134 99.9557C74.143 99.226 75.0727 98.7291 76.0847 98.5278C77.0968 98.3265 78.1459 98.4298 79.0992 98.8247C80.0526 99.2196 80.8674 99.8883 81.4407 100.746C82.014 101.604 82.32 102.613 82.32 103.645C82.32 105.027 81.7713 106.353 80.7943 107.332C79.8174 108.31 78.4921 108.86 77.1096 108.862H77.1026ZM91.9513 137.429C90.0029 137.43 88.0981 136.853 86.4777 135.771C84.8574 134.689 83.5943 133.151 82.8482 131.351C82.1021 129.551 81.9066 127.57 82.2862 125.659C82.6659 123.748 83.6038 121.993 84.9813 120.615C86.3588 119.237 88.1139 118.298 90.0248 117.918C91.9357 117.538 93.9165 117.732 95.7166 118.478C97.5168 119.223 99.0554 120.486 100.138 122.106C101.22 123.726 101.798 125.63 101.798 127.579C101.798 130.191 100.761 132.696 98.9144 134.543C97.0678 136.39 94.5632 137.428 91.9513 137.429ZM103.325 148.932C102.666 148.933 102.021 148.738 101.473 148.372C100.924 148.006 100.497 147.485 100.244 146.876C99.9912 146.267 99.925 145.597 100.053 144.95C100.182 144.304 100.499 143.71 100.966 143.243C101.432 142.777 102.026 142.46 102.673 142.331C103.319 142.203 103.99 142.269 104.599 142.522C105.208 142.774 105.728 143.202 106.094 143.751C106.46 144.299 106.655 144.944 106.654 145.603C106.652 146.485 106.301 147.33 105.677 147.952C105.052 148.575 104.207 148.925 103.325 148.925V148.932ZM111.537 118.222C110.878 118.222 110.234 118.027 109.686 117.66C109.138 117.294 108.711 116.774 108.459 116.164C108.206 115.555 108.141 114.885 108.27 114.239C108.398 113.592 108.716 112.999 109.182 112.533C109.649 112.067 110.243 111.75 110.889 111.622C111.536 111.493 112.206 111.56 112.815 111.813C113.424 112.065 113.944 112.493 114.31 113.041C114.675 113.59 114.87 114.234 114.87 114.894C114.867 115.776 114.515 116.62 113.89 117.243C113.265 117.866 112.419 118.215 111.537 118.215V118.222ZM116.602 101.255C114.653 101.255 112.749 100.678 111.129 99.595C109.509 98.5125 108.246 96.9738 107.501 95.1737C106.755 93.3736 106.56 91.3928 106.941 89.4819C107.321 87.571 108.26 85.8158 109.638 84.4384C111.016 83.0609 112.771 82.123 114.682 81.7433C116.593 81.3636 118.574 81.5592 120.374 82.3053C122.174 83.0514 123.712 84.3145 124.794 85.9348C125.876 87.5552 126.453 89.46 126.452 91.4084C126.452 92.7018 126.197 93.9826 125.702 95.1775C125.207 96.3724 124.482 97.4581 123.567 98.3725C122.652 99.2869 121.566 100.012 120.371 100.507C119.176 101.001 117.895 101.256 116.602 101.255ZM130.167 144.734C129.135 144.734 128.126 144.428 127.268 143.854C126.41 143.281 125.742 142.466 125.347 141.513C124.952 140.559 124.849 139.51 125.05 138.498C125.251 137.486 125.748 136.557 126.478 135.827C127.207 135.097 128.137 134.6 129.149 134.399C130.161 134.198 131.21 134.301 132.164 134.696C133.117 135.091 133.932 135.76 134.505 136.618C135.078 137.476 135.384 138.484 135.384 139.516C135.384 140.202 135.249 140.882 134.986 141.515C134.723 142.149 134.338 142.725 133.853 143.209C133.367 143.694 132.791 144.078 132.156 144.339C131.522 144.601 130.843 144.735 130.157 144.734H130.167ZM133.496 114.887C132.837 114.887 132.192 114.691 131.644 114.325C131.096 113.959 130.669 113.439 130.417 112.83C130.165 112.221 130.099 111.551 130.228 110.904C130.356 110.258 130.673 109.664 131.139 109.198C131.605 108.732 132.199 108.415 132.846 108.286C133.492 108.158 134.162 108.224 134.771 108.476C135.38 108.728 135.9 109.155 136.266 109.703C136.632 110.251 136.828 110.895 136.828 111.554C136.828 111.993 136.741 112.427 136.573 112.832C136.405 113.237 136.159 113.605 135.848 113.914C135.538 114.224 135.169 114.469 134.764 114.636C134.358 114.803 133.924 114.888 133.485 114.887H133.496ZM139.36 88.7997C137.819 88.8004 136.313 88.3441 135.032 87.4887C133.751 86.6332 132.752 85.4169 132.162 83.9938C131.572 82.5706 131.418 81.0044 131.718 79.4934C132.019 77.9824 132.76 76.5944 133.85 75.505C134.939 74.4157 136.327 73.6739 137.838 73.3735C139.349 73.0731 140.915 73.2277 142.338 73.8175C143.762 74.4074 144.978 75.4061 145.833 76.6874C146.689 77.9686 147.145 79.4748 147.144 81.0154C147.143 82.0376 146.94 83.0496 146.548 83.9935C146.155 84.9374 145.581 85.7948 144.857 86.5167C144.133 87.2385 143.274 87.8108 142.329 88.2007C141.384 88.5906 140.372 88.7906 139.35 88.7893L139.36 88.7997Z" fill="white"/>
</svg>
