<svg width="200" height="200" viewBox="0 0 200 200" fill="none" xmlns="http://www.w3.org/2000/svg">
<rect width="200" height="200" fill="white" fill-opacity="0.01"/>
<path d="M164.041 93.6676C163.246 85.83 158.019 78.965 151.923 74.3068C147.482 70.9276 141.669 69.2624 136.927 66.2117C134.173 64.4429 131.537 62.4968 129.036 60.3857C126.722 58.4319 124.706 55.7987 122.162 54.169C116.998 50.8697 111.061 51.7311 105.603 53.7605C99.4176 56.0562 95.9007 62.1975 92.1973 67.2375C85.7274 76.0475 76.8153 81.2518 66.1269 83.0103C62.2903 83.6453 59.022 85.941 55.9136 88.2546C52.2561 90.9528 48.9712 94.1227 46.1445 97.6818C36.8193 109.605 37.1568 122.891 37.2945 126.248C37.5165 131.705 37.854 140.013 43.7288 145.56C45.4739 147.203 47.3567 148.273 61.0469 151.594C73.6669 154.658 79.9814 156.19 83.5782 156.035C93.9335 155.542 93.1564 151.275 106.109 149.197C117.291 147.42 121.389 150.018 129.844 145.977C136.874 142.62 138.588 138.632 139.098 137.127C139.986 134.543 139.249 133.45 139.498 131.092C140.386 122.811 150.883 121.23 158.006 111.781C159.258 110.111 164.947 102.602 164.041 93.6676ZM59.5726 109.36C59.1582 110.278 58.4506 111.033 57.5611 111.505C57.0149 111.812 55.8737 112.442 54.6126 112.043C53.2804 111.598 52.7031 110.311 52.4633 109.76C52.2089 109.218 52.0661 108.629 52.0432 108.031C52.0203 107.432 52.1179 106.835 52.3301 106.274C52.3967 106.114 53.307 104.01 55.5495 103.725C56.3097 103.633 57.0805 103.761 57.7701 104.094C58.4597 104.427 59.0392 104.951 59.4394 105.604C59.7499 106.177 59.9235 106.815 59.9466 107.466C59.9697 108.118 59.8417 108.766 59.5726 109.36ZM80.7629 137.78C78.1918 140.089 73.5381 139.676 71.642 136.843C70.2477 134.751 70.483 131.545 72.1793 130.005C73.3161 128.97 74.8081 128.952 77.1394 128.93C79.3597 128.908 80.643 128.894 81.58 129.734C83.3428 131.363 83.1874 135.608 80.7629 137.789V137.78ZM87.6013 116.594C83.3118 117.065 76.2735 116.15 75.1278 112.571C73.8357 108.499 80.3499 101.727 87.1972 100.901C88.0853 100.795 93.938 100.089 96.8554 104.121C96.9753 104.289 99.0757 107.282 98.0632 110.559C96.5046 115.622 89.08 116.439 87.6013 116.603V116.594ZM102.89 131.612C100.781 132.056 98.978 129.774 98.7338 129.467C97.8457 128.335 96.7533 126.119 97.6592 124.907C98.2453 124.121 99.3998 124.116 101.012 124.103C103.01 124.103 104.76 124.072 105.572 125.173C106.873 126.945 105.452 131.106 102.89 131.621V131.612ZM112.948 128.504C112.34 128.616 111.713 128.549 111.141 128.313C110.57 128.077 110.08 127.68 109.729 127.171C108.627 125.444 109.68 122.62 111.74 121.945C113.072 121.501 114.764 121.989 115.497 123.148C116.651 125.004 115.155 128.113 112.948 128.557V128.504ZM113.836 90.9233C111.798 92.0201 108.632 91.505 107.597 89.3114C107.254 88.5327 107.167 87.6653 107.348 86.8339C107.529 86.0025 107.969 85.2499 108.605 84.6844C109.937 83.5787 111.651 83.9117 112.526 84.0849C113.308 84.2359 115.559 84.6755 116.15 86.394C116.74 88.1125 115.404 90.1196 113.854 90.9544L113.836 90.9233ZM119.569 76.7402C118.614 78.4454 116.394 78.7296 115.039 78.552C114.193 78.4366 113.389 78.1085 112.703 77.5983C112.017 77.0881 111.472 76.4125 111.118 75.6345C110.972 75.3059 110.102 73.25 111.118 71.7136C112.411 69.7553 116.096 69.6398 118.161 71.4116C119.529 72.6061 120.608 74.9374 119.587 76.7713L119.569 76.7402ZM134.254 112.948C130.408 114.445 125.479 113.392 123.792 110.537C120.901 105.653 127.291 95.1685 133.445 95.6481C136.594 95.8967 139.565 99.0007 140.288 102.491C141.23 106.994 138.308 111.408 134.271 112.979L134.254 112.948ZM149.942 81.1675C149.498 82.7172 146.434 83.9206 144.311 82.7749C141.443 81.2296 142.011 76.3406 143.503 75.5324C145.382 74.5599 150.661 78.7918 149.96 81.1985L149.942 81.1675Z" fill="white"/>
<path d="M45.7576 78.3797C53.3909 76.7367 57.2409 75.8797 59.0348 74.3566C62.6628 71.2793 65.7534 65.1469 63.4754 61.479C61.1974 57.8111 54.7408 58.4861 53.0135 58.6637C45.2692 59.4541 40.6466 65.249 39.3144 67.1185C36.7833 70.6709 33.9413 76.9587 36.095 79.1879C36.8233 79.9295 37.9512 80.0671 45.7576 78.3797Z" fill="white"/>
<path d="M104.901 35.7503C109.839 39.0807 117.881 39.0185 120.59 34.9466C121.691 33.2947 122.069 30.7503 120.994 28.9119C119.662 26.6072 116.553 26.3186 114.155 26.0921C109.142 25.6481 101.518 26.7804 100.878 30.1153C100.381 32.6908 104.32 35.3418 104.901 35.7503Z" fill="white"/>
<path d="M120.577 41.3673C119.874 42.2936 119.494 43.4242 119.494 44.5867C119.494 45.7492 119.874 46.8797 120.577 47.8061C121.249 48.6044 122.145 49.1839 123.149 49.4703C124.153 49.7566 125.219 49.7369 126.212 49.4135C129.4 48.3567 131.096 43.9117 129.427 41.3673C127.757 38.8229 122.726 38.6319 120.577 41.3673Z" fill="white"/>
<path d="M182.144 133.886C181.996 131.1 181.313 128.368 180.132 125.84C179.062 123.309 178.525 122.043 177.317 121.399C174.653 120.009 170.874 122.492 168.88 123.811C162.761 127.869 160.168 133.695 159.209 135.911C157.619 139.606 155.967 143.46 157.197 147.98C157.526 149.193 158.574 153.051 162.024 154.823C166.975 157.359 172.721 153.491 173.694 152.812C177.801 150.027 179.329 145.955 180.532 142.754C181.691 139.945 182.24 136.923 182.144 133.886Z" fill="white"/>
<path d="M133.455 154.42C130.178 154.952 126.643 157.754 127.02 160.454C127.309 162.546 129.822 163.7 130.64 164.073C132.664 165.006 136.643 165.827 139.077 163.27C140.542 161.738 141.452 158.998 140.284 156.835C138.588 153.66 133.832 154.362 133.455 154.42Z" fill="white"/>
<path d="M25.1404 114.894C24.199 114.623 23.4041 114.894 22.5249 115.191C21.388 115.534 20.3746 116.199 19.6075 117.105C18.8082 118.095 18.5817 119.09 18.302 120.325C18.1013 121.215 18.0001 122.125 18 123.038C18.1776 123.193 20.4601 125.147 23.4308 124.37C24.2682 124.109 25.0414 123.675 25.7001 123.096C26.3588 122.517 26.8882 121.806 27.2541 121.008C27.4806 120.489 28.2044 118.824 27.4539 117.087C27.3473 116.861 26.6901 115.333 25.1404 114.894Z" fill="white"/>
</svg>
