<svg xmlns="http://www.w3.org/2000/svg" width="202" height="202" fill="none" viewBox="0 0 202 202">
  <g clip-path="url(#a)">
    <path fill="#fff" d="M65.196 49.795c-5.15 4.873-9.342 10.554-12.524 16.917l-1.06 2.121-1.717-3.434c-2.879-5.757-6.616-11.009-11.136-15.554l.05-.05h-7.12l3.232 3.207a55.59 55.59 0 0 1 10.53 14.594l6.16 12.322 5.505-11.009A55.8 55.8 0 0 1 69.59 52.446l2.929-2.651h-7.323Zm11.085 0-2.045 1.868-2.93 2.652a53.464 53.464 0 0 0-11.917 15.73l-5.505 11.01-2.272 4.52-2.248-4.52-6.16-12.323a52.272 52.272 0 0 0-10.075-13.938l-3.283-3.307-1.717-1.692h-8.635v20.3l.757 1.516a31.735 31.735 0 0 0 7.07 9.292l2.576 2.348 2.045 1.869-2.045 1.868-2.576 2.348a31.518 31.518 0 0 0-7.07 9.318l-.757 1.515v74.31h174.149V49.795H76.281Zm-19.09 64.817a2.446 2.446 0 0 1-1.741-.707 2.5 2.5 0 0 1-.026-3.51l24.821-25.15a2.5 2.5 0 0 1 3.51-.024c.96.96.985 2.55.025 3.51l-24.82 25.148c-.48.505-1.112.733-1.768.733Zm76.18-25.856L71.357 150.77a2.487 2.487 0 0 1-1.767.732 2.43 2.43 0 0 1-1.743-.732 2.5 2.5 0 0 1 0-3.51l62.014-62.014a2.455 2.455 0 0 1 3.51 0c.96.96.96 2.525 0 3.51Zm37.219 24.618-24.796 25.149c-.48.48-1.136.733-1.767.733a2.447 2.447 0 0 1-1.743-.707c-.984-.96-.984-2.525-.025-3.51l24.796-25.149c.959-.96 2.55-.985 3.509-.025.985.959.985 2.525 0 3.509h.026ZM25.604 82.771a34.036 34.036 0 0 1-6.11-7.347v8.206c.429.505.909 1.01 1.388 1.49-.48.48-.96.984-1.388 1.49v8.206a34.782 34.782 0 0 1 6.11-7.348l2.6-2.348-2.6-2.349Zm-9.52-13.913V79.26c-.833-1.212-1.565-2.475-2.247-3.763a3.233 3.233 0 0 1-.278.505 33.862 33.862 0 0 1-2.525 4.217V69.741l2.525-5.58.076-.177 2.45 4.874Z"/>
    <path fill="#fff" d="M36.713 41.082a53.893 53.893 0 0 1-2.272 2.525 47.749 47.749 0 0 1-2.55 2.5h-.026l-15.78.025v12.246a2.532 2.532 0 0 1-2.526 2.525 2.532 2.532 0 0 1-2.525-2.525V41.082h25.68Zm9.369 0a57.96 57.96 0 0 1-1.818 2.525 47.669 47.669 0 0 1-2.07 2.525h-6.717a45.14 45.14 0 0 0 2.373-2.525c.732-.808 1.414-1.666 2.096-2.525h6.136Zm13.432 2.525c-.656-.833-1.313-1.666-1.919-2.525h6.262a40.948 40.948 0 0 0 2.172 2.525 47.184 47.184 0 0 0 2.5 2.525h-6.894a51.014 51.014 0 0 1-2.12-2.525ZM13.56 105.748l-2.526-5.075V90.269a39.539 39.539 0 0 1 2.475 4.242l.05.102.177.378a38.583 38.583 0 0 1 2.348-3.939v10.378l-2.348 4.671-.177-.353Z"/>
    <path fill="#fff" d="M202.126 41.082v141.501H11.034v-70.75a2.532 2.532 0 0 1 2.525-2.525 2.532 2.532 0 0 1 2.525 2.525v65.7h180.992V46.132H72.266l-.935-.858c-.606-.556-1.187-1.086-1.742-1.667a44.62 44.62 0 0 1-2.374-2.525h134.911Z"/>
    <path fill="#fff" d="M69.59 47.115c-.354-.328-.708-.656-1.061-1.01a47.222 47.222 0 0 1-2.5-2.525 40.948 40.948 0 0 1-2.171-2.525 54.798 54.798 0 0 1-6.742-10.403l-5.631-11.236-4.52 10.05a54.556 54.556 0 0 1-7.02 11.59c-.681.858-1.363 1.716-2.095 2.524a45.175 45.175 0 0 1-2.373 2.525 66.112 66.112 0 0 1-1.92 1.844l-1.944 1.767.076.076 3.232 3.206a55.593 55.593 0 0 1 10.53 14.595l6.16 12.322 5.505-11.009a55.8 55.8 0 0 1 12.473-16.463l2.93-2.651-2.93-2.677ZM52.671 66.71l-1.06 2.121-1.718-3.434c-2.877-5.757-6.613-11.01-11.133-15.555l.05-.05a57.89 57.89 0 0 0 3.384-3.687 47.66 47.66 0 0 0 2.07-2.525 57.853 57.853 0 0 0 1.819-2.525 60.83 60.83 0 0 0 5.403-9.544l.252-.53.935 1.893a63.895 63.895 0 0 0 4.924 8.181c.606.859 1.262 1.692 1.919 2.525a51.014 51.014 0 0 0 2.12 2.525 61.363 61.363 0 0 0 3.56 3.687c-5.15 4.873-9.342 10.554-12.523 16.917ZM25.604 82.77a34.036 34.036 0 0 1-6.11-7.347 34.977 34.977 0 0 1-1.49-2.702l-1.945-3.889-2.449-4.873-.076.177-2.525 5.58-1.035 2.298A34.201 34.201 0 0 1 1.793 83.3l-1.919 1.742 2.752 2.752a34.211 34.211 0 0 1 6.414 8.888l1.97 3.964 2.524 5.075.177.354 2.348-4.671 1.944-3.889a35.35 35.35 0 0 1 1.49-2.702 34.782 34.782 0 0 1 6.11-7.347l2.601-2.349-2.6-2.348Zm-6.11 3.838a39.002 39.002 0 0 0-3.435 4.419 38.583 38.583 0 0 0-2.348 3.939l-.177-.379-.05-.1a39.539 39.539 0 0 0-2.475-4.243 38.724 38.724 0 0 0-4.04-5.075c1.49-1.566 2.854-3.207 4.04-4.974a33.862 33.862 0 0 0 2.525-4.217c.101-.151.202-.328.278-.505.682 1.288 1.414 2.55 2.247 3.762a38.095 38.095 0 0 0 3.434 4.394c.43.505.91 1.01 1.389 1.49-.48.48-.96.984-1.389 1.49Z"/>
  </g>
  <defs>
    <clipPath id="a">
      <path fill="#fff" d="M0 0h202v202H0z"/>
    </clipPath>
  </defs>
</svg>
