<svg xmlns="http://www.w3.org/2000/svg" width="202" height="202" fill="none" viewBox="0 0 202 202">
  <path fill="#fff" d="M173.897 93.347v37.244h-37.294l22.346-37.244h14.948Zm11.64-20.2h-33.153a8.584 8.584 0 0 0-7.348 4.167l-36.309 60.499c-3.434 5.706.682 12.978 7.348 12.978h69.462c4.722 0 8.56-3.838 8.56-8.56V81.732c0-4.721-3.838-8.56-8.56-8.56v-.025Z"/>
  <path fill="#fff" d="M113.624 147.916a3.841 3.841 0 0 1-3.206-1.743L35.628 28.584c-.96-1.49-.733-3.459.53-4.721l7.751-7.752c.733-.732 1.717-1.086 2.753-1.111a3.65 3.65 0 0 1 2.701 1.212l92.289 100.091a3.79 3.79 0 0 1-.227 5.353 3.79 3.79 0 0 1-5.353-.227L46.485 24.267l-2.828 2.828 73.174 115.013c1.111 1.768.606 4.116-1.161 5.227a3.739 3.739 0 0 1-2.02.581h-.026Z"/>
  <path fill="#fff" d="M37.52 91.858a2.532 2.532 0 0 1-2.524-2.526V26.384a2.532 2.532 0 0 1 2.525-2.525 2.532 2.532 0 0 1 2.525 2.525v62.948a2.532 2.532 0 0 1-2.525 2.526Zm1.29 82.191c21.433 0 38.808-17.375 38.808-38.809 0-21.434-17.375-38.81-38.809-38.81C17.376 96.43 0 113.807 0 135.24s17.375 38.809 38.81 38.809Zm74.815-27.399a2.564 2.564 0 0 1-2.5-2.095l-10.277-61.206-36.259-12.6a2.529 2.529 0 0 1-1.565-3.207 2.529 2.529 0 0 1 3.206-1.565l37.673 13.08a2.514 2.514 0 0 1 1.667 1.969l10.529 62.67a2.535 2.535 0 0 1-2.07 2.904c-.152 0-.278.025-.43.025l.026.025Zm73.503 20.202a4.784 4.784 0 0 1 4.772 4.772 4.784 4.784 0 0 1-4.772 4.772h-74.917a4.784 4.784 0 0 1-4.772-4.772 4.784 4.784 0 0 1 4.772-4.772h74.917Zm0-10.1h-74.917c-8.206 0-14.872 6.666-14.872 14.872s6.666 14.872 14.872 14.872h74.917c8.206 0 14.872-6.666 14.872-14.872s-6.666-14.872-14.872-14.872Z"/>
</svg>
