<svg width="200" height="200" viewBox="0 0 200 200" fill="none" xmlns="http://www.w3.org/2000/svg">
<rect width="200" height="200" fill="white" fill-opacity="0.01"/>
<path d="M103.476 78.7268C102.922 78.0157 102.74 77.6601 101.835 77.6601C100.93 77.6601 97.2748 79.0823 97.2748 79.0823L96.91 79.9712C96.91 79.9712 96.7276 81.0379 96.1871 81.0379C95.6467 81.0379 92.904 80.8601 92.5392 80.149L92.1744 79.4379C92.1744 79.4379 89.4722 80.149 89.4722 80.6824C89.4722 81.2157 89.4722 82.2824 88.925 82.2824H88.3778L85 82.1046V162H122V75L116.974 77.3045C116.459 77.5654 115.905 77.7454 115.332 77.8379C114.785 77.8379 111.873 77.4823 111.873 77.4823C111.762 77.8278 111.7 78.1869 111.691 78.549V80.1556C111.372 80.5401 110.916 80.7939 110.414 80.8667C109.502 81.0445 104.949 81.2223 104.949 81.2223C104.517 80.3585 104.025 79.5247 103.476 78.7268Z" fill="white"/>
<path d="M81.2122 67.7884C81.3531 67.24 81.5794 66.7165 81.8829 66.2368C82.2518 65.839 84.4719 63.9692 84.4719 63.9692C84.2884 63.6554 84.0628 63.3677 83.8012 63.1138L82.6006 62.0264C82.5264 61.5345 82.6413 61.033 82.9226 60.6207C83.3988 59.8449 86.2762 56.4235 86.2762 56.4235C87.2084 56.7062 88.1584 56.9277 89.1201 57.0866C90.0256 57.1662 90.4146 57.2723 91.025 56.6158C91.6354 55.9594 93.0372 52.3457 93.0372 52.3457L92.6146 51.4838C92.6146 51.4838 91.9439 50.6284 92.2994 50.2306C92.6549 49.8327 94.6268 47.9696 95.4049 48.1884L96.1829 48.4072C96.1829 48.4072 97.4774 45.9472 97.075 45.5825C96.6726 45.2179 95.8744 44.5018 96.2433 44.1039L96.6055 43.7061L99 41.3854L79.7701 24L55 50.8207L79.5823 73L81.2122 67.7884Z" fill="white"/>
<path d="M109.144 70.5561C111.368 68.7581 108.968 59.4876 105.276 59.0197C103 58.7257 99.9805 61.7668 100 64.7879C100.033 69.4265 107.214 72.1134 109.144 70.5561Z" fill="white"/>
<path d="M87.478 74.956C90.4221 74.522 92.7392 70.6941 91.7804 68.6668C90.9937 66.9892 87.939 66.4646 85.8124 67.6175C84.1283 68.5502 82.4442 70.9078 83.1756 72.8509C83.8394 74.5415 85.966 75.1827 87.478 74.956Z" fill="white"/>
<path d="M96.6802 71.1339C96.0948 70.6935 94.1625 71.3573 94.0051 72.8625C93.917 74.0324 94.9808 75.1037 95.6605 74.992C96.7243 74.8474 97.4481 71.7386 96.6802 71.1339Z" fill="white"/>
<path d="M74.6802 103.134C74.0948 102.694 72.1625 103.357 72.0051 104.862C71.917 106.032 72.9808 107.104 73.6605 106.992C74.7243 106.847 75.4481 103.739 74.6802 103.134Z" fill="white"/>
<path d="M106.071 75.9968C108.09 75.9107 109.315 74.1511 108.929 73.505C108.332 72.5391 103.311 73.0682 103.016 74.1695C102.827 74.8463 104.324 76.0706 106.071 75.9968Z" fill="white"/>
<path d="M118.777 34.8129C115.588 32.1193 104.837 36.7053 105.002 40.0423C105.112 42.7233 112.261 46.9813 116.897 43.9597C120.34 41.7392 120.843 36.5413 118.777 34.8129Z" fill="white"/>
<path d="M54.2297 61.6195C53.0844 60.505 50.6226 61.0389 49.2272 62.0799C45.0936 65.1697 47.5948 74.6993 49.6814 74.9929C52.0444 75.3199 56.8758 64.2154 54.2297 61.6195Z" fill="white"/>
<path d="M70.593 88.0134C68.3247 88.2553 66.2878 91.6892 67.2401 93.3033C67.7493 94.1739 69.5085 94.3916 73.0267 94.8389C75.4008 95.1352 75.6719 94.9538 75.7645 94.8389C76.8954 93.6238 73.7541 87.6809 70.593 88.0134Z" fill="white"/>
<rect x="59" y="174.936" width="3" height="11" transform="rotate(-30 59 174.936)" fill="white"/>
<rect x="75.0977" y="174.936" width="3" height="11" transform="rotate(-30 75.0977 174.936)" fill="white"/>
<rect x="91.1953" y="174.936" width="3" height="11" transform="rotate(-30 91.1953 174.936)" fill="white"/>
<rect x="107.293" y="174.936" width="3" height="11" transform="rotate(-30 107.293 174.936)" fill="white"/>
<rect x="139.488" y="174.936" width="3" height="11" transform="rotate(-30 139.488 174.936)" fill="white"/>
<rect x="123.391" y="174.936" width="3" height="11" transform="rotate(-30 123.391 174.936)" fill="white"/>
<path d="M154 166H52V170H154V166Z" fill="white"/>
</svg>
