<svg xmlns="http://www.w3.org/2000/svg" width="202" height="202" fill="none" viewBox="0 0 202 202">
  <path fill="#fff" d="M134.65 51.096H67.325V172.28h67.325V51.096Z"/>
  <path fill="#fff" d="M80.789 56.983a2.534 2.534 0 0 1-2.526-2.527v-26.93A2.534 2.534 0 0 1 80.789 25a2.534 2.534 0 0 1 2.526 2.526v26.93a2.534 2.534 0 0 1-2.526 2.526Zm16.851 0a2.534 2.534 0 0 1-2.527-2.527v-26.93A2.534 2.534 0 0 1 97.64 25a2.534 2.534 0 0 1 2.527 2.526v26.93a2.534 2.534 0 0 1-2.526 2.526Zm23.57 0a2.533 2.533 0 0 1-2.526-2.527v-26.93A2.533 2.533 0 0 1 121.21 25a2.534 2.534 0 0 1 2.526 2.526v26.93a2.534 2.534 0 0 1-2.526 2.526Z"/>
  <path fill="#fff" d="M121.209 36.772H80.814a2.534 2.534 0 0 1-2.526-2.526 2.534 2.534 0 0 1 2.526-2.526h40.395a2.534 2.534 0 0 1 2.526 2.526 2.534 2.534 0 0 1-2.526 2.526Zm6.689 22.62-6.685 3.572 59.76 111.827 6.685-3.573-59.76-111.826Zm-53.818-.014L14.337 169.779l6.665 3.607L80.746 62.985l-6.665-3.607Z"/>
  <path fill="#fff" d="M198.21 176.069H3.79A3.784 3.784 0 0 1 0 172.28a3.785 3.785 0 0 1 3.79-3.79h194.42a3.785 3.785 0 0 1 3.79 3.79 3.785 3.785 0 0 1-3.79 3.789Z"/>
</svg>
