<svg xmlns="http://www.w3.org/2000/svg" width="202" height="202" fill="none" viewBox="0 0 202 202">
  <path fill="#fff" d="M189.661 173.866H12v28.133h177.661v-28.133Zm-.197-.003h-8.44V63.581l-80.179-53.453-80.18 53.453v110.282h-8.44V59.08L100.845 0l88.619 59.08v114.783Z"/>
  <path fill="#fff" d="M147.265 173.863h-8.44v-54.016l-37.98-25.32-37.98 25.32v54.016h-8.44v-58.517l46.42-30.947 46.42 30.947v58.517Zm37.98-116.75h-168.8v8.44h168.8v-8.44Z"/>
  <path fill="#fff" d="M105.065 5.067h-8.44v172.569h8.44V5.067Z"/>
  <path fill="#fff" d="M100.846 67.295 65.314 31.763l5.964-5.964 29.568 29.568 29.568-29.568 5.964 5.964-35.532 35.532Z"/>
  <path fill="#fff" d="M161.5 178.09a4.214 4.214 0 0 1-4.22-4.22V88.345l-10.24 30.609a4.236 4.236 0 0 1-3.995 2.87h-84.4a4.207 4.207 0 0 1-3.995-2.898l-9.902-30.13v85.074a4.214 4.214 0 0 1-4.22 4.22 4.214 4.214 0 0 1-4.22-4.22V62.406c0-2.081 1.519-3.826 3.544-4.163a4.193 4.193 0 0 1 4.67 2.841l17.19 52.3h78.295l17.498-52.3c.647-1.969 2.645-3.15 4.671-2.813a4.226 4.226 0 0 1 3.544 4.164v111.463a4.214 4.214 0 0 1-4.22 4.22v-.028Z"/>
  <path fill="#fff" d="m182.03 100.782-23.745 28.149 6.451 5.442 23.745-28.149-6.451-5.442Zm-162.356.036-6.45 5.443 23.75 28.144 6.45-5.443-23.75-28.144Z"/>
</svg>
