<svg xmlns="http://www.w3.org/2000/svg" width="202" height="202" fill="none" viewBox="0 0 202 202">
  <g clip-path="url(#a)">
    <path fill="#fff" d="m160.489 77.743-69.185 98.829a73.488 73.488 0 0 1-17.094-3.056l8.08-56.585c.176-1.212-.783-2.323-1.995-2.323h-46.94c-1.666 0-2.626-1.919-1.59-3.257l66.912-86.027a73.366 73.366 0 0 1 18.357 2.879l-7.323 44.01a2.023 2.023 0 0 0 1.995 2.349h47.116c1.642 0 2.601 1.843 1.667 3.181Z"/>
    <path fill="#fff" d="m160.489 77.745-69.185 98.828-17.17 24.543c-.43.606-1.035.884-1.616.884-1.136 0-2.247-.959-2.045-2.323l3.737-26.159 8.08-56.585c.176-1.212-.783-2.323-1.995-2.323h-46.94c-1.666 0-2.626-1.919-1.59-3.257l66.912-86.027L117.766.783c.429-.556.985-.783 1.565-.783 1.137 0 2.248.96 2.02 2.348l-4.317 25.856-7.323 44.011a2.023 2.023 0 0 0 1.995 2.348h47.116c1.642 0 2.601 1.843 1.667 3.182Z"/>
  </g>
  <defs>
    <clipPath id="a">
      <path fill="#fff" d="M0 0h202v202H0z"/>
    </clipPath>
  </defs>
</svg>
