<svg xmlns="http://www.w3.org/2000/svg" width="202" height="202" fill="none" viewBox="0 0 202 202">
  <path fill="#fff" d="M88.733 0C67.503 0 50.24 17.264 50.24 38.468c0 16.837 10.865 31.19 25.946 36.385 3.94 1.38 8.155 2.108 12.547 2.108 4.39 0 8.606-.728 12.546-2.108 15.081-5.195 25.946-19.548 25.946-36.385C127.225 17.264 109.961 0 88.733 0Zm0 2.51c19.848 0 35.983 16.134 35.983 35.958 0 15.432-9.761 28.63-23.437 33.725a35.887 35.887 0 0 1-12.546 2.258c-4.417 0-8.633-.803-12.547-2.258C62.51 67.099 52.749 53.9 52.749 38.468c0-19.824 16.135-35.959 35.984-35.959Z"/>
  <path fill="#fff" d="M88.733 0C67.503 0 50.24 17.264 50.24 38.468c0 16.837 10.865 31.19 25.946 36.385 3.94 1.38 8.155 2.108 12.547 2.108 4.39 0 8.606-.728 12.546-2.108 15.081-5.195 25.946-19.548 25.946-36.385C127.225 17.264 109.961 0 88.733 0Zm0 2.51c19.848 0 35.983 16.134 35.983 35.958 0 15.432-9.761 28.63-23.437 33.725a35.887 35.887 0 0 1-12.546 2.258c-4.417 0-8.633-.803-12.547-2.258C62.51 67.099 52.749 53.9 52.749 38.468c0-19.824 16.135-35.959 35.984-35.959Zm-37.64 136.756v25.093c0 6.926-5.62 12.547-12.547 12.547a12.597 12.597 0 0 1-8.882-3.664A12.6 12.6 0 0 1 26 164.359v-25.093c0-6.925 5.62-12.546 12.547-12.546 6.925 0 12.546 5.621 12.546 12.546Zm125.465-50.184v25.093c0 6.925-5.621 12.546-12.547 12.546a12.605 12.605 0 0 1-8.883-3.663 12.603 12.603 0 0 1-3.663-8.883V89.082c0-6.926 5.621-12.547 12.546-12.547 6.926 0 12.547 5.621 12.547 12.547Z"/>
  <path fill="#fff" d="M145.192 89.181v24.993h-12.547a6.276 6.276 0 0 0-6.273 6.273v62.733c0 10.389-8.431 18.82-18.82 18.82H82.459c-10.388 0-18.82-8.431-18.82-18.82v-12.546a6.278 6.278 0 0 0-1.831-4.442 6.28 6.28 0 0 0-4.442-1.832v-25.093H82.46a6.276 6.276 0 0 1 6.274 6.273v25.094a6.276 6.276 0 0 0 6.273 6.273 6.28 6.28 0 0 0 4.441-1.832 6.275 6.275 0 0 0 1.832-4.441v-50.187a6.276 6.276 0 0 0-6.273-6.273c-5.194 0-9.887-2.108-13.3-5.52-3.412-3.413-5.52-8.105-5.52-13.3v-37.64a6.276 6.276 0 0 1 6.273-6.273h12.547a6.275 6.275 0 0 1 6.273 6.274v25.093a6.276 6.276 0 0 0 6.273 6.273l27.176.075h10.464v.025ZM82.235 38.972c0-.176 0-.327.025-.502h12.647v.502c0 3.487-2.836 6.348-6.349 6.348-3.513 0-6.349-2.86-6.349-6.348h.026Z"/>
  <path fill="#fff" d="M125.971 38.47c0 16.16-10.313 29.91-24.691 35.055-3.915 1.43-8.13 2.183-12.547 2.183-4.416 0-8.632-.753-12.546-2.183C61.808 68.38 51.495 54.63 51.495 38.47h25.746c-.025.15-.025.326-.025.502 0 6.273 5.093 11.367 11.367 11.367 6.273 0 11.367-5.094 11.367-11.367v-.502h26.047-.026Z"/>
  <path fill="#fff" d="M94.931 38.97c0 3.489-2.835 6.35-6.349 6.35-3.513 0-6.348-2.861-6.348-6.35 0-.175 0-.325.025-.501a6.33 6.33 0 0 1 6.123-5.847l1.656-2.384a8.896 8.896 0 0 1 4.717 2.359l-.978 2.76a5.855 5.855 0 0 1 1.129 3.112v.502h.025Z"/>
  <path fill="#fff" d="m91.57 28.006-1.531 2.233-1.656 2.384h.2a6.27 6.27 0 0 1 5.195 2.735l.978-2.76.879-2.534a11.319 11.319 0 0 0-4.065-2.058Z"/>
  <path fill="#fff" d="m101.279 13.802-5.646 16.26-.878 2.534-.978 2.76-1.08 3.112-.752 2.183-4.341-2.183-2.384-1.204 3.162-4.642 1.656-2.384 1.53-2.234 9.711-14.202ZM39.976 139.267v25.093h28.756v-25.093H39.976Zm23.738 20.074h-18.72v-15.056h18.72v15.056Zm71.015-70.183v25.018h29.283V89.158h-29.283Zm24.265 19.999h-19.247v-14.98h19.247v14.98Z"/>
</svg>
