<svg xmlns="http://www.w3.org/2000/svg" width="202" height="202" fill="none" viewBox="0 0 202 202">
  <path fill="#fff" fill-rule="evenodd" d="M107.567 6.155a1415.186 1415.186 0 0 1 30.794 41.765h-.025c1.945 2.744 3.911 5.478 5.871 8.203 16.363 22.755 32.313 44.936 32.313 67.459 0 41.79-33.871 75.662-75.662 75.662-41.79 0-75.662-33.872-75.662-75.662 0-22.499 15.916-44.656 32.242-67.385 1.976-2.75 3.957-5.508 5.917-8.277 12.257-17.3 23.834-32.66 30.794-41.765 3.38-4.414 10.038-4.414 13.418 0ZM73.935 166.078c-6.35 2.153-14.08.406-17.254-3.901-17.944-24.374-16.794-53.211 3.129-76.867l9.064-10.767c.874-1.06 3.313-.437 2.899.75l-6.304 19.91c-5.705 18.101-2.162 36.982 10.03 53.523l4.142 5.649c3.174 4.307.598 9.55-5.752 11.703h.046Z" clip-rule="evenodd"/>
</svg>
