<svg xmlns="http://www.w3.org/2000/svg" width="201" height="201" fill="none" viewBox="0 0 201 201">
  <g clip-path="url(#a)">
    <path fill="#fff" d="M126.382 47.209v154.053h32.999V47.209h-32.999Zm16.499 2.968c7.219 0 13.079 5.86 13.079 13.104 0 7.243-5.86 13.078-13.079 13.078-7.218 0-13.079-5.86-13.079-13.078 0-7.219 5.861-13.104 13.079-13.104Z"/>
    <path fill="#fff" d="M154.652 47.209H32.718c-1.408 0-2.741.654-3.571 1.76l-18.31 24.02c-2.264 2.968-.152 7.219 3.57 7.219h140.245c2.465 0 4.503-2.012 4.503-4.502v-24.02c0-2.465-2.038-4.477-4.503-4.477Zm-11.77 29.15c-7.219 0-13.079-5.86-13.079-13.078 0-7.219 5.86-13.104 13.079-13.104 7.218 0 13.078 5.86 13.078 13.104 0 7.243-5.86 13.078-13.078 13.078Z"/>
    <path fill="#fff" d="M38.326 125.025h11.017V76.206H38.326v48.819Z"/>
    <path fill="#fff" d="M39.836 143.084h8.023c.855 0 1.61-.604 1.786-1.459l3.672-18.386a1.802 1.802 0 0 0-1.786-2.163H36.164c-1.157 0-2.013 1.057-1.786 2.163l3.672 18.386a1.808 1.808 0 0 0 1.786 1.459Z"/>
    <path fill="#fff" d="M43.86 171.002c-4.427 0-8.024-3.596-8.024-8.023a2.523 2.523 0 0 1 2.516-2.515 2.523 2.523 0 0 1 2.515 2.515 2.984 2.984 0 0 0 2.993 2.993 2.984 2.984 0 0 0 2.993-2.993 2.984 2.984 0 0 0-2.993-2.993h-2.515v-16.927a2.523 2.523 0 0 1 2.515-2.515 2.523 2.523 0 0 1 2.515 2.515v12.299c3.194 1.057 5.508 4.075 5.508 7.621 0 4.427-3.597 8.023-8.023 8.023ZM162.298 36.19h-38.834c-4.476 0-8.098 3.621-8.098 8.073v38.86a8.093 8.093 0 0 0 8.098 8.098h38.834a8.094 8.094 0 0 0 8.099-8.099V44.263c0-4.452-3.622-8.073-8.099-8.073Zm-19.417 40.166c-7.218 0-13.078-5.86-13.078-13.078 0-7.219 5.86-13.104 13.078-13.104 7.219 0 13.079 5.86 13.079 13.104 0 7.243-5.86 13.078-13.079 13.078Zm38.507 124.905h-77.039v-9.508c0-6.916 5.609-12.5 12.501-12.5h52.013c6.916 0 12.5 5.609 12.5 12.5v9.508h.025ZM60.36 80.23 49.342 91.22h-10.99l-12.35-11.016 34.357.025Z"/>
    <path fill="#fff" d="M32.316 52.087a2.51 2.51 0 0 1-2.314-1.534 2.523 2.523 0 0 1 1.333-3.295L142.68.25c.906-.402 1.987-.201 2.717.478.729.679.98 1.735.628 2.666L133.45 38.606a2.544 2.544 0 0 1-3.22 1.534 2.543 2.543 0 0 1-1.534-3.22l10.639-29.829L33.296 51.886a2.734 2.734 0 0 1-.98.201Z"/>
    <path fill="#fff" d="M181.388 96.882a2.523 2.523 0 0 1-2.515-2.516V38.858L149.119 11.09l9.507 28.899a2.51 2.51 0 0 1-1.61 3.17 2.509 2.509 0 0 1-3.169-1.61l-12.576-38.23A2.567 2.567 0 0 1 142.302.4a2.5 2.5 0 0 1 3.069.276l37.727 35.212c.503.478.805 1.132.805 1.836v56.591a2.523 2.523 0 0 1-2.515 2.515v.05Z"/>
    <path fill="#fff" d="M181.388 41.172h-41.273a2.522 2.522 0 0 1-2.515-2.515 2.522 2.522 0 0 1 2.515-2.515h41.273a2.522 2.522 0 0 1 2.515 2.515 2.522 2.522 0 0 1-2.515 2.515Zm0 37.274h-20.649a2.522 2.522 0 0 1-2.515-2.515 2.522 2.522 0 0 1 2.515-2.515h20.649a2.523 2.523 0 0 1 2.515 2.515 2.523 2.523 0 0 1-2.515 2.515Zm-3.345 41.074h6.715a6.339 6.339 0 0 0 6.339-6.339v-12.475c0-3.5-2.838-6.338-6.339-6.338h-6.715a6.338 6.338 0 0 0-6.338 6.338v12.475a6.339 6.339 0 0 0 6.338 6.339Z"/>
  </g>
  <defs>
    <clipPath id="a">
      <path fill="#fff" d="M0 0h201v201H0z"/>
    </clipPath>
  </defs>
</svg>
