<svg xmlns="http://www.w3.org/2000/svg" width="202" height="202" fill="none" viewBox="0 0 202 202">
  <path fill="#fff" d="M60.154 145.416c-.305 0-.66 0-.966.051 5.363-8.92 9.912-23.838 15.477-31.665l5.439 20.331c.89 3.253.28 6.709-1.652 9.504h-.56a12.808 12.808 0 0 0-8.894 3.558c-.33.305-.66.635-.94.966-.254-.203-.483-.356-.737-.534a12.943 12.943 0 0 0-7.192-2.185l.025-.026Z"/>
  <path fill="#fff" d="M201.86 177.972H0s12.63-37.866 25.236-37.866c10.978 0 12.376 9.607 20.94 12.072.636.457 1.271.864 2.008 1.22a13.09 13.09 0 0 0-.991 4.981 1.22 1.22 0 0 0 2.44 0v-.534a10.123 10.123 0 0 1 1.677-5.184c1.22-.204 2.363-.763 3.482-1.729.864-.711 1.702-1.626 2.54-2.719a10.23 10.23 0 0 1 2.822-.406c1.27 0 2.567.254 3.736.686a10.09 10.09 0 0 1 2.77 1.601c.05 0 .127.076.178.152l-.33.153c-1.017 1.804-1.576 3.939-1.576 6.175 0 .686.533 1.22 1.22 1.22.686 0 1.22-.534 1.22-1.22v-.533c.253-5.566 4.879-10.013 10.52-10.013 2.466 0 4.829.864 6.71 2.439.152.102.28.229.406.331.483.432 1.246.406 1.728-.077a1.261 1.261 0 0 0-.076-1.728 12.63 12.63 0 0 0-5.59-2.998 13.817 13.817 0 0 0 1.372-10.522l-5.896-22.059c1.728-1.779 3.507-2.846 5.463-2.846 12.631 0 18.934 18.908 31.539 18.908 21.245 0 16.518-63.077 54.385-63.077 37.866 0 33.952 113.573 33.952 113.573h-.025Z"/>
  <path fill="#fff" d="M127.906 87.297c7.396 2.414-.762 27.446-8.132 25.032-7.395-2.414.763-27.447 8.132-25.032ZM57.333 148.24a10.05 10.05 0 0 0-5.311 3.456l2.77-.737 9.123-2.44c-1.194-.432-2.465-.686-3.735-.686-.991 0-1.932.152-2.821.407h-.026Z"/>
  <path fill="#fff" d="m80.105 134.109-5.439-20.331-1.728-6.404c-.788-3.05-3.939-4.829-6.989-4.041l-9.352 2.516-.305-1.169-.305-1.169-16.595-61.907 5.794-12.453c.61-1.27.407-2.77-.508-3.863-.89-1.067-2.338-1.525-3.735-1.169l-20.484 5.49a3.649 3.649 0 0 0-2.668 3.023 3.62 3.62 0 0 0 1.779 3.635l12.808 7.395 16.544 61.704.305 1.169.305 1.194-9.377 2.516c-1.474.382-2.72 1.322-3.457 2.669a5.644 5.644 0 0 0-.584 4.295l7.192 26.735a11.311 11.311 0 0 0 5.972 7.293c2.16-3.252 5.718-5.514 9.86-5.794.306-.051.661-.051.966-.051 2.567 0 5.058.737 7.192 2.186l1.678-.432a12.808 12.808 0 0 1 8.894-3.558h.56a11.361 11.361 0 0 0 1.651-9.505l.026.026ZM33.928 36.19l-3.125-1.804 4.523-1.22-1.398 3.024Z"/>
  <path fill="#fff" d="m66.863 150.247-.33.153-16.875 7.446a10.123 10.123 0 0 1 1.678-5.184c.228-.331.431-.661.711-.966a10.147 10.147 0 0 1 5.312-3.456 10.19 10.19 0 0 1 2.82-.407c1.271 0 2.567.254 3.736.686a10.09 10.09 0 0 1 2.77 1.601c.051 0 .127.076.178.153v-.026Zm17.739-1.781-17.205 7.573c.254-5.565 4.88-10.013 10.521-10.013 2.465 0 4.829.864 6.71 2.44h-.026Z"/>
  <path fill="#fff" d="M66.686 150.092s.127.076.178.152l-.33.153s.1-.204.177-.28l-.025-.025Z"/>
</svg>
