<svg xmlns="http://www.w3.org/2000/svg" width="202" height="202" fill="none" viewBox="0 0 202 202">
  <path fill="#fff" d="M25.22 153.844h151.324v12.459c0 5.649-4.59 10.239-10.214 10.239H35.435c-5.624 0-10.214-4.59-10.214-10.239v-12.459ZM166.33 0H35.435c-5.624 0-10.214 4.565-10.214 10.214V47.92h151.323V10.214c0-5.65-4.59-10.214-10.214-10.214Zm-51.248 15.132H86.709a2.53 2.53 0 0 1-2.523-2.522 2.53 2.53 0 0 1 2.522-2.522h28.374a2.53 2.53 0 0 1 2.522 2.522 2.53 2.53 0 0 1-2.522 2.522ZM25.22 52.962v45.397h151.324V52.962H25.221Zm89.862 18.915H86.709a2.53 2.53 0 0 1-2.523-2.522 2.53 2.53 0 0 1 2.522-2.522h28.374a2.53 2.53 0 0 1 2.522 2.522 2.53 2.53 0 0 1-2.522 2.522ZM25.22 103.402v45.397h151.324v-45.397H25.221Zm89.862 18.916H86.709a2.53 2.53 0 0 1-2.523-2.522 2.53 2.53 0 0 1 2.522-2.522h28.374a2.53 2.53 0 0 1 2.522 2.522 2.53 2.53 0 0 1-2.522 2.522Zm-59.597 54.225H45.397v25.221h10.088v-25.221Zm100.883 0h-10.089v25.221h10.089v-25.221Z"/>
</svg>
