<svg xmlns="http://www.w3.org/2000/svg" width="202" height="202" fill="none" viewBox="0 0 202 202">
  <path fill="#fff" d="m101 35.027 92.002 53.114-92.028 53.167-91.976-53.14L101 35.026Zm0-5.178L0 88.167l101 58.319 101-58.344-101-58.293Z"/>
  <path fill="#fff" d="M101 146.486v25.839l100.974-58.344.026-25.84-101 58.345Z"/>
  <path fill="#fff" fill-rule="evenodd" d="M101 146.486 0 88.167v25.84l101 58.318v-25.839Zm-73.981-34.3-18.33-10.587c-1.358-.794-3.075.18-3.075 1.769v4.307c0 .717.384 1.409 1.025 1.768l18.329 10.587c1.358.795 3.076-.179 3.076-1.768v-4.307c0-.718-.384-1.41-1.025-1.769Zm15.329 8.845 18.328 10.587a2.035 2.035 0 0 1 1.026 1.768v4.307c0 1.589-1.718 2.563-3.076 1.769l-18.33-10.587a2.035 2.035 0 0 1-1.024-1.769v-4.307c0-1.589 1.717-2.563 3.076-1.768Zm52.013 30.018-18.33-10.587c-1.358-.795-3.075.179-3.075 1.769v4.306c0 .718.384 1.41 1.025 1.769l18.329 10.587c1.358.795 3.076-.179 3.076-1.769v-4.306c0-.718-.385-1.41-1.025-1.769Z" clip-rule="evenodd"/>
</svg>
