<svg xmlns="http://www.w3.org/2000/svg" width="202" height="202" fill="none" viewBox="0 0 202 202">
  <path fill="#fff" d="M3.677 168.189a3.498 3.498 0 0 1-1.844-.505c-1.768-1.01-2.348-3.283-1.338-5.025l74.268-127.93c1.01-1.768 3.283-2.349 5.025-1.339 1.768 1.01 2.349 3.283 1.339 5.026L6.858 166.37a3.665 3.665 0 0 1-3.181 1.843v-.025Zm194.649-.002a3.677 3.677 0 0 1-3.283-2.02L130.346 38.212c-.91-1.819-.177-4.04 1.616-4.95a3.711 3.711 0 0 1 4.949 1.616l64.698 127.956c.909 1.818.176 4.04-1.617 4.949a3.6 3.6 0 0 1-1.666.404Zm-12.602-6.59L122.668 35.46a6.257 6.257 0 0 0-5.581-3.46h-7.677v18.41a3.691 3.691 0 0 1-3.687 3.686 3.675 3.675 0 0 1-3.686-3.687V32h-7.172a6.26 6.26 0 0 0-5.43 3.157L17.34 161.294c-2.374 4.166.631 9.343 5.43 9.343h76.793v-40.909a6.142 6.142 0 0 1 6.136-6.136 6.143 6.143 0 0 1 6.137 6.136v40.909h68.308c4.647 0 7.677-4.899 5.581-9.04Zm-75.127-56.49a4.904 4.904 0 0 1-4.899 4.899 4.904 4.904 0 0 1-4.899-4.899V75.409a4.904 4.904 0 0 1 4.899-4.899 4.904 4.904 0 0 1 4.899 4.9v29.697Z"/>
</svg>
