<svg xmlns="http://www.w3.org/2000/svg" width="202" height="202" fill="none" viewBox="0 0 202 202">
  <g clip-path="url(#a)">
    <path fill="#fff" d="m190.46 57.9-32.926 57.014-89.865-51.89L100.57 6.01c3.03-5.226 9.393-7.347 14.847-5.15.96.378 1.566 1.262 1.566 2.247v9.014c-.051 1.894 2.095 3.055 3.686 2.02l7.171-4.722c.732-.505 1.717-.53 2.5-.076l30.805 17.776a2.4 2.4 0 0 1 1.086 2.727L145.288 65.6c-.682 2.4 2.272 4.09 3.989 2.298l23.407-32.017a2.417 2.417 0 0 1 2.904-.43l10.453 6.036c5.757 3.307 7.727 10.655 4.394 16.412h.025ZM61.18 74.26l-6.968 12.07c-3.333 5.757-1.364 13.08 4.393 16.413l12.676 7.322c7.701 4.444 9.267 14.873 3.232 21.387l-.101.151L44.44 163.52c-6.413 6.817-8.534 16.917-4.595 25.426a22.436 22.436 0 0 0 22.649 12.953c9.292-.934 16.917-7.777 19.72-16.69 3.156-10.125 9.09-29.088 12.852-41.081 0-.076.05-.127.05-.203 2.854-8.736 13.409-12.296 21.362-7.726l11.211 6.439c5.757 3.333 13.08 1.363 16.413-4.394l6.969-12.069-89.89-51.914Zm-5.504 113.297a9.2 9.2 0 0 1-3.358-12.574 9.179 9.179 0 0 1 12.575-3.358 9.178 9.178 0 0 1 3.358 12.574 9.178 9.178 0 0 1-12.575 3.358Z"/>
  </g>
  <defs>
    <clipPath id="a">
      <path fill="#fff" d="M0 0h202v202H0z"/>
    </clipPath>
  </defs>
</svg>
