<svg width="200" height="200" viewBox="0 0 200 200" fill="none" xmlns="http://www.w3.org/2000/svg">
<rect width="200" height="200" fill="white" fill-opacity="0.01"/>
<path fill-rule="evenodd" clip-rule="evenodd" d="M98.0312 43.1042L155.474 58.6291C156.232 58.8339 156.879 59.3277 157.277 60.0044L178.173 95.5383C178.721 96.4695 178.726 97.6234 178.185 98.559L165.829 119.961C165.289 120.897 164.287 121.47 163.207 121.461L121.985 121.131C121.2 121.125 120.449 120.811 119.893 120.257L77.7265 78.273C76.7626 77.3133 76.565 75.8251 77.2451 74.6471L94.6504 44.5003C95.3305 43.3223 96.7181 42.7493 98.0312 43.1042ZM28 105.402L46.7158 80.5457H65.4315H76.5664L76.5664 125.546H163V136.546H150.646C150.565 141.369 148.747 145.555 145.192 149.101C141.553 152.731 137.245 154.546 132.266 154.546C127.287 154.546 122.979 152.731 119.34 149.101C115.785 145.555 113.967 141.369 113.886 136.546H77.1142C77.0331 141.369 75.2149 145.555 71.6596 149.101C68.0213 152.731 63.7128 154.546 58.734 154.546C53.7553 154.546 49.4468 152.731 45.8085 149.101C42.2894 145.591 40.4722 141.455 40.3569 136.693H28L28 136.207L28 105.402ZM141.452 136.546H123.08C123.155 138.89 124.015 140.974 125.66 142.797C127.383 144.517 129.585 145.376 132.266 145.376C134.947 145.376 137.149 144.517 138.872 142.797C140.517 140.974 141.377 138.89 141.452 136.546ZM49.5537 136.693C49.6596 138.978 50.5176 141.013 52.1277 142.797C53.8511 144.517 56.0532 145.376 58.734 145.376C61.4149 145.376 63.617 144.517 65.3404 142.797C66.9505 141.013 67.8085 138.978 67.9144 136.693H49.5537ZM49.9325 89.9035H65.4315V105.402H37.6503L49.9325 89.9035Z" fill="white"/>
</svg>
