<svg xmlns="http://www.w3.org/2000/svg" width="202" height="202" fill="none" viewBox="0 0 202 202">
  <path fill="#fff" d="M187.107 161.67a4.79 4.79 0 0 1 4.779 4.778 4.791 4.791 0 0 1-4.779 4.779h-75.02a4.791 4.791 0 0 1-4.779-4.779 4.79 4.79 0 0 1 4.779-4.778h75.02Zm0-10.114h-75.02c-8.217 0-14.893 6.675-14.893 14.892 0 8.218 6.676 14.893 14.893 14.893h75.02c8.218 0 14.893-6.675 14.893-14.893 0-8.217-6.675-14.892-14.893-14.892Zm-1.82-47.638h-57.826a9.643 9.643 0 0 0-6.827 2.832l-9.229 9.229a9.643 9.643 0 0 0-2.832 6.827v13.148c0 5.335 4.323 9.633 9.633 9.633h67.056c5.335 0 9.633-4.323 9.633-9.633v-22.403c0-5.335-4.324-9.633-9.633-9.633h.025Z"/>
  <path fill="#fff" d="M183.113 75.779A4.23 4.23 0 0 1 187.336 80v29.963a4.23 4.23 0 0 1-4.223 4.222h-33.628c-2.175 0-3.262-1.466-3.641-2.073-.38-.632-1.113-2.301-.051-4.197l16.663-29.963a4.202 4.202 0 0 1 3.691-2.174h16.966Zm0-7.586h-16.966a11.784 11.784 0 0 0-10.316 6.069l-16.663 29.962c-4.374 7.864 1.315 17.548 10.317 17.548h33.628c6.524 0 11.808-5.285 11.808-11.808V80.001c0-6.523-5.284-11.808-11.808-11.808Z"/>
  <path fill="#fff" d="M135.375 126.852a5.102 5.102 0 0 1-4.323-2.402L75.02 33.374l-31.2 33.452c-1.897 2.048-5.108 2.15-7.156.253-2.048-1.897-2.149-5.108-.253-7.156l35.728-38.306a5.033 5.033 0 0 1 4.197-1.593 5.001 5.001 0 0 1 3.793 2.377l59.546 96.714a5.049 5.049 0 0 1-1.644 6.953 5.103 5.103 0 0 1-2.655.759v.025Z"/>
  <path fill="#fff" fill-rule="evenodd" d="M5.234 114.79h78.863a5.245 5.245 0 0 1 5.234 5.234v49.407H0v-49.407a5.245 5.245 0 0 1 5.234-5.234Z" clip-rule="evenodd"/>
  <path fill="#fff" d="M30.948 85.79a5.386 5.386 0 1 0 0-10.77 5.386 5.386 0 0 0 0 10.77Zm-16.055 95.551c8.225 0 14.892-6.668 14.892-14.893 0-8.225-6.667-14.892-14.892-14.892S0 158.223 0 166.448s6.668 14.893 14.893 14.893Zm59.546 0c8.225 0 14.892-6.668 14.892-14.893 0-8.225-6.667-14.892-14.892-14.892s-14.893 6.667-14.893 14.892 6.668 14.893 14.893 14.893Zm-34.337-70.82a7.282 7.282 0 1 0 0-14.564 7.282 7.282 0 0 0 0 14.564Zm-19.065-8.624a7.282 7.282 0 1 0 0-14.564 7.282 7.282 0 0 0 0 14.564Z"/>
  <path fill="#fff" d="M10.923 83.134h5.967V73.45c0-1.416.557-2.781 1.568-3.793l6.524-6.523a5.387 5.387 0 0 1 7.61 0l4.299 4.298a5.387 5.387 0 0 0 7.61 0 5.37 5.37 0 0 0 1.416-5.107l-3.97-15.904a5.396 5.396 0 0 0-6.27-3.97l-24.754 4.956c-9.86 9.86-9.86 25.866 0 35.727Z"/>
</svg>
