<svg xmlns="http://www.w3.org/2000/svg" width="202" height="202" fill="none" viewBox="0 0 202 202">
  <g clip-path="url(#a)">
    <path fill="#fff" d="M85.578.089H3.038A3.038 3.038 0 0 0 0 3.127v82.54a3.038 3.038 0 0 0 3.038 3.037h82.54a3.038 3.038 0 0 0 3.038-3.037V3.126A3.038 3.038 0 0 0 85.578.089Zm0 99.254H3.038A3.038 3.038 0 0 0 0 102.38v82.539a3.038 3.038 0 0 0 3.038 3.038h82.54a3.038 3.038 0 0 0 3.038-3.038V102.38a3.038 3.038 0 0 0-3.038-3.038Zm113.43 14.961-81.286-14.333a3.038 3.038 0 0 0-3.519 2.464L99.87 183.721a3.038 3.038 0 0 0 2.464 3.519l81.286 14.333a3.038 3.038 0 0 0 3.519-2.464l14.333-81.286a3.037 3.037 0 0 0-2.464-3.519ZM184.825.089h-82.54a3.038 3.038 0 0 0-3.037 3.038v82.54a3.038 3.038 0 0 0 3.037 3.037h82.54a3.038 3.038 0 0 0 3.038-3.037V3.126a3.038 3.038 0 0 0-3.038-3.038Z"/>
  </g>
  <defs>
    <clipPath id="a">
      <path fill="#fff" d="M0 0h202v202H0z"/>
    </clipPath>
  </defs>
</svg>
