<svg xmlns="http://www.w3.org/2000/svg" width="202" height="202" fill="none" viewBox="0 0 202 202">
  <path fill="#fff" d="M77.012 113.221h-29.77v59.009h65.878v-59.009H77.012Zm115.292-84.158h-65.878v143.015h65.878V29.062Z"/>
  <path fill="#fff" d="M196.975 19.644H5.025A5.022 5.022 0 0 0 0 24.668v154.076a5.022 5.022 0 0 0 5.025 5.025h191.95a5.022 5.022 0 0 0 5.025-5.025V24.668a5.022 5.022 0 0 0-5.025-5.024Zm-82.087 5.05v77.012H82.062V24.694h32.826Zm-38.507 0v77.012H42.925l-.05-77.012H76.38ZM5.05 178.744V24.694h32.825v154.05H5.05Zm110.595-5.252c0 .707-.581 1.262-1.263 1.262H45.98a1.266 1.266 0 0 1-1.262-1.262v-61.534c0-.707.58-1.263 1.262-1.263h68.402c.682 0 1.263.556 1.263 1.263v61.534Zm79.184-.152c0 .707-.581 1.263-1.262 1.263h-68.403a1.267 1.267 0 0 1-1.262-1.263V27.8c0-.708.581-1.263 1.262-1.263h68.403c.681 0 1.262.555 1.262 1.262V173.34Z"/>
</svg>
