<svg xmlns="http://www.w3.org/2000/svg" width="202" height="202" fill="none" viewBox="0 0 202 202">
  <path fill="#fff" fill-rule="evenodd" d="M100.882 0c14.898 29.795 47.925 45.955 80.624 39.415l7.751-1.54v70.523c0 5.884-.555 11.767-1.666 17.524-1.111 5.757-2.778 11.387-4.949 16.867-11.615 29.063-37.143 50.272-67.822 56.408L100.882 202l-13.938-2.803a92.186 92.186 0 0 1-41.056-19.619 92.51 92.51 0 0 1-26.765-36.789 92.674 92.674 0 0 1-6.616-34.391V37.875l7.752 1.54c4.848.96 9.721 1.44 14.519 1.44 27.573 0 53.404-15.479 66.104-40.855Zm20.675 174.203s-9.389 0-9.389-9.455c0-2.866 1.274-6.178 2.664-9.793 3.198-8.313 7.01-18.22-2.664-27.942 0 0 0 18.852-9.361 18.852 0 0 9.361-37.735-9.36-37.735 0 0 3.616 5.786 0 9.427-.722.727-1.894 1.537-3.31 2.516-5.727 3.96-15.44 10.675-15.44 25.792 0 18.853 9.36 28.338 9.36 28.338s-28.11-11.482-28.11-56.646c0-30.956 15.412-46.02 25.108-55.498 4.45-4.35 7.697-7.523 7.697-10.516 0-9.515-4.694-9.485-4.694-9.485s37.499-1.997 37.499 56.617c0 0 9.36 0 9.36-9.427 0 0 39.628 35.592-9.36 84.955Z" clip-rule="evenodd"/>
</svg>
