<svg xmlns="http://www.w3.org/2000/svg" width="202" height="202" fill="none" viewBox="0 0 202 202">
  <g clip-path="url(#a)">
    <path fill="#fff" d="M72.07 31.102c0 3.182-2.547 5.757-5.73 5.757a5.754 5.754 0 0 1-5.757-5.758c0-3.182 2.575-5.728 5.758-5.728a5.723 5.723 0 0 1 5.728 5.729Z"/>
    <path fill="#fff" d="M34.689-.52v63.274h63.302V-.52H34.69Zm41.604 39.955c0 .897-.753 1.62-1.65 1.62H58.037c-.926 0-1.65-.723-1.65-1.62V22.799c0-.897.724-1.62 1.65-1.62h16.606c.897 0 1.65.723 1.65 1.62v16.636Z"/>
    <path fill="#fff" d="M72.07 31.1c0 3.183-2.547 5.758-5.73 5.758a5.754 5.754 0 0 1-5.757-5.757c0-3.183 2.575-5.729 5.758-5.729a5.723 5.723 0 0 1 5.728 5.729Zm69.32.002c0 3.182-2.546 5.757-5.729 5.757a5.754 5.754 0 0 1-5.757-5.758c0-3.182 2.575-5.728 5.757-5.728a5.723 5.723 0 0 1 5.729 5.729Z"/>
    <path fill="#fff" d="M104.039-.52v63.274h63.302V-.52h-63.302Zm41.603 39.955c0 .897-.752 1.62-1.649 1.62h-16.607c-.925 0-1.649-.723-1.649-1.62V22.799c0-.897.724-1.62 1.649-1.62h16.607c.897 0 1.649.723 1.649 1.62v16.636Z"/>
    <path fill="#fff" d="M141.39 31.1c0 3.183-2.546 5.758-5.729 5.758a5.754 5.754 0 0 1-5.757-5.757c0-3.183 2.575-5.729 5.757-5.729a5.723 5.723 0 0 1 5.729 5.729ZM72.07 170.871c0 3.183-2.546 5.757-5.729 5.757a5.753 5.753 0 0 1-5.757-5.757c0-3.182 2.575-5.728 5.757-5.728a5.722 5.722 0 0 1 5.729 5.728Z"/>
    <path fill="#fff" d="M34.689 139.25v63.273h63.302V139.25H34.69Zm41.604 39.954c0 .897-.753 1.621-1.65 1.621H58.037c-.926 0-1.65-.724-1.65-1.621v-16.635c0-.897.724-1.62 1.65-1.62h16.606c.897 0 1.65.723 1.65 1.62v16.635Z"/>
    <path fill="#fff" d="M72.069 170.869c0 3.183-2.546 5.757-5.729 5.757a5.753 5.753 0 0 1-5.757-5.757c0-3.182 2.575-5.728 5.757-5.728a5.723 5.723 0 0 1 5.729 5.728Zm69.321.002c0 3.183-2.546 5.757-5.729 5.757a5.753 5.753 0 0 1-5.757-5.757c0-3.182 2.575-5.728 5.757-5.728a5.722 5.722 0 0 1 5.729 5.728Z"/>
    <path fill="#fff" d="M104.039 139.25v63.273h63.302V139.25h-63.302Zm41.603 39.954c0 .897-.752 1.621-1.649 1.621h-16.607c-.925 0-1.649-.724-1.649-1.621v-16.635c0-.897.724-1.62 1.649-1.62h16.607c.897 0 1.649.723 1.649 1.62v16.635Z"/>
    <path fill="#fff" d="M141.389 170.869c0 3.183-2.546 5.757-5.728 5.757a5.753 5.753 0 0 1-5.758-5.757c0-3.182 2.575-5.728 5.758-5.728a5.723 5.723 0 0 1 5.728 5.728ZM37.38 100.711c0 3.182-2.546 5.757-5.729 5.757a5.754 5.754 0 0 1-5.757-5.757c0-3.183 2.575-5.729 5.757-5.729a5.723 5.723 0 0 1 5.729 5.729Z"/>
    <path fill="#fff" d="M0 69.09v63.273h63.302V69.09H0Zm41.604 39.954c0 .897-.753 1.62-1.65 1.62H23.349c-.926 0-1.65-.723-1.65-1.62V92.409c0-.897.724-1.62 1.65-1.62h16.607c.896 0 1.649.723 1.649 1.62v16.635Z"/>
    <path fill="#fff" d="M37.38 100.711c0 3.182-2.547 5.757-5.73 5.757a5.754 5.754 0 0 1-5.756-5.757c0-3.183 2.575-5.729 5.757-5.729a5.723 5.723 0 0 1 5.728 5.729Zm69.349 0c0 3.182-2.545 5.757-5.728 5.757a5.754 5.754 0 0 1-5.757-5.757c0-3.183 2.575-5.729 5.757-5.729a5.722 5.722 0 0 1 5.728 5.729Z"/>
    <path fill="#fff" d="M69.35 69.09v63.273h63.302V69.09H69.35Zm41.603 39.954c0 .897-.752 1.62-1.649 1.62H92.697c-.925 0-1.649-.723-1.649-1.62V92.409c0-.897.724-1.62 1.65-1.62h16.606c.897 0 1.649.723 1.649 1.62v16.635Z"/>
    <path fill="#fff" d="M106.728 100.711c0 3.182-2.546 5.757-5.729 5.757a5.754 5.754 0 0 1-5.757-5.757c0-3.183 2.575-5.729 5.757-5.729a5.723 5.723 0 0 1 5.729 5.729Z"/>
    <path fill="#fff" d="M106.728 100.711c0 3.182-2.546 5.757-5.729 5.757a5.754 5.754 0 0 1-5.757-5.757c0-3.183 2.575-5.729 5.757-5.729a5.723 5.723 0 0 1 5.729 5.729Zm69.35 0c0 3.182-2.546 5.757-5.728 5.757a5.754 5.754 0 0 1-5.758-5.757c0-3.183 2.575-5.729 5.758-5.729a5.723 5.723 0 0 1 5.728 5.729Z"/>
    <path fill="#fff" d="M138.698 69.09v63.273H202V69.09h-63.302Zm41.603 39.954c0 .897-.752 1.62-1.649 1.62h-16.606c-.926 0-1.65-.723-1.65-1.62V92.409c0-.897.724-1.62 1.65-1.62h16.606c.897 0 1.649.723 1.649 1.62v16.635Z"/>
    <path fill="#fff" d="M176.077 100.711c0 3.182-2.546 5.757-5.728 5.757a5.754 5.754 0 0 1-5.758-5.757c0-3.183 2.575-5.729 5.758-5.729a5.723 5.723 0 0 1 5.728 5.729Z"/>
  </g>
  <defs>
    <clipPath id="a">
      <path fill="#fff" d="M0 0h202v202H0z"/>
    </clipPath>
  </defs>
</svg>
