<svg xmlns="http://www.w3.org/2000/svg" width="202" height="202" fill="none" viewBox="0 0 202 202">
  <path fill="#fff" d="M63.125 128.625H0V166.5h63.125v-37.875Z"/>
  <path fill="#fff" d="M194.425 166.5H44.187a7.565 7.565 0 0 1-7.575-7.575 7.565 7.565 0 0 1 7.575-7.575h150.238a7.565 7.565 0 0 1 7.575 7.575 7.565 7.565 0 0 1-7.575 7.575Z"/>
  <path fill="#fff" d="M38.355 186.069c-11.843 0-21.463-9.62-21.463-21.463h10.1c0 6.262 5.1 11.363 11.363 11.363 6.262 0 11.362-5.101 11.362-11.363h10.1c0 11.843-9.62 21.463-21.462 21.463Zm129.558 0c-11.843 0-21.463-9.62-21.463-21.463h10.1c0 6.262 5.101 11.363 11.363 11.363s11.362-5.101 11.362-11.363h10.1c0 11.843-9.62 21.463-21.462 21.463Zm-35.35-101.631H75.75v56.812h56.813V84.437Zm69.437 0h-56.812v56.812H202V84.437ZM132.563 15H75.75v56.813h56.813V15ZM202 15h-56.812v56.813H202V15ZM55.55 121.05H18.281l22.725-22.725h10.731a3.81 3.81 0 0 1 3.813 3.813v18.912Zm-17.675-30.3L0 128.625h63.125V94.563a3.81 3.81 0 0 0-3.813-3.813H37.875Z"/>
</svg>
