<svg xmlns="http://www.w3.org/2000/svg" width="202" height="202" fill="none" viewBox="0 0 202 202">
  <g clip-path="url(#a)">
    <path fill="#fff" d="M78.88 135.755c.9.37 1.772.74 2.67 1.11.026 0 .08 0 .106.053.925.344 1.85.714 2.774 1.084 15.777 5.866 32.874 9.09 50.738 9.09 17.864 0 34.962-3.224 50.738-9.09.925-.37 1.85-.74 2.775-1.084.027-.026.079-.026.106-.053.898-.37 1.77-.74 2.669-1.11A136.871 136.871 0 0 0 202 130.787l-8.377-7.822a59.249 59.249 0 0 0 1.321-12.526c0-20.797-10.65-39.19-26.796-49.866l-9.381 42.837c-.291 1.321-1.374 2.325-2.696 2.484-.607-.079-1.215-.185-1.823-.264a3.224 3.224 0 0 1-1.823-3.383l6.923-46.483 1.189-8.087A70.79 70.79 0 0 0 135.168 43a70.795 70.795 0 0 0-25.369 4.677l1.19 8.087 6.923 46.483a3.224 3.224 0 0 1-1.823 3.383c-.608.079-1.216.185-1.824.264-1.321-.159-2.404-1.163-2.695-2.484l-9.381-42.837C86.069 71.25 75.393 89.642 75.393 110.44c0 4.308.449 8.483 1.321 12.526l-8.377 7.822a136.96 136.96 0 0 0 10.544 4.968Z"/>
    <path fill="#fff" d="M7.44 155.683c.63.257 1.259.515 1.888.801 0 0 .058 0 .086.028l1.975.773c11.216 4.178 23.378 6.467 36.082 6.467 12.705 0 24.866-2.289 36.083-6.467l1.975-.773s.057 0 .086-.028c.629-.258 1.259-.515 1.888-.801A89.642 89.642 0 0 0 95 152.134l-5.952-5.58c.63-2.89.945-5.837.945-8.927 0-14.794-7.583-27.871-19.058-35.482l-6.667 30.474c-.2.945-.973 1.66-1.917 1.774-.43-.057-.858-.143-1.288-.2a2.245 2.245 0 0 1-1.287-2.404l4.921-33.05.859-5.75a50.331 50.331 0 0 0-18.056-3.32 50.331 50.331 0 0 0-18.056 3.32l.859 5.75 4.921 33.05c.144 1.031-.4 2.003-1.287 2.404-.43.057-.859.143-1.288.2a2.248 2.248 0 0 1-1.917-1.774l-6.667-30.474c-11.475 7.611-19.057 20.659-19.057 35.482 0 3.062.314 6.037.944 8.927L0 152.134c2.432 1.288 4.95 2.461 7.497 3.549H7.44Z"/>
    <path fill="#303030" fill-rule="evenodd" d="M5.784 154.936A95.026 95.026 0 0 1 0 152.134l5.952-5.58a41.82 41.82 0 0 1-.945-8.927c0-12.426 5.33-23.605 13.813-31.38a42.665 42.665 0 0 1 5.245-4.102l6.667 30.474c.2.945.973 1.66 1.917 1.774.215-.028.43-.064.644-.1.214-.036.429-.071.644-.1.887-.401 1.43-1.373 1.287-2.404l-5.78-38.8a50.331 50.331 0 0 1 18.056-3.32 50.331 50.331 0 0 1 18.055 3.32l-5.78 38.8a2.245 2.245 0 0 0 1.288 2.404c.215.029.43.064.644.1.215.036.43.072.644.1a2.248 2.248 0 0 0 1.917-1.774l6.667-30.474a42.588 42.588 0 0 1 5.244 4.104c8.484 7.78 13.813 18.976 13.813 31.378 0 3.09-.315 6.037-.944 8.927l5.952 5.58a87.489 87.489 0 0 1-7.497 3.549c-.63.286-1.26.543-1.889.801-.028.028-.086.028-.086.028l-1.974.773c-11.217 4.178-23.378 6.467-36.083 6.467-12.705 0-24.866-2.289-36.083-6.467l-1.974-.773c-.029-.028-.086-.028-.086-.028-.235-.107-.47-.21-.704-.31-.376-.16-.752-.314-1.127-.468a.033.033 0 0 1-.009-.004l-.048-.019h.057l-.049-.021a141.267 141.267 0 0 1-1.664-.726Zm-.58 6.117-.063.148c-2.664-1.138-5.338-2.382-7.949-3.764l-7.427-3.932 9.71-9.104a48.583 48.583 0 0 1-.468-6.774c0-16.919 8.663-31.807 21.74-40.482l2.958-1.962-.907-6.076 4.502-1.722a56.33 56.33 0 0 1 20.2-3.716 56.33 56.33 0 0 1 20.2 3.716l4.501 1.722-.907 6.076 2.958 1.962c13.08 8.676 21.74 23.594 21.74 40.482 0 2.308-.155 4.559-.467 6.775l9.709 9.103-7.427 3.932a95.597 95.597 0 0 1-7.913 3.749 52.95 52.95 0 0 1-1.796.764c-.249.115-.48.201-.68.266l-1.724.674-.046.018c-11.877 4.423-24.747 6.844-38.177 6.844s-26.3-2.421-38.177-6.844l-.046-.018-1.039-.406h-.18l-1.116-.507-.854-.335-.067-.066a70.562 70.562 0 0 0-.824-.34l.036-.183Z" clip-rule="evenodd"/>
  </g>
  <defs>
    <clipPath id="a">
      <path fill="#fff" d="M0 0h202v202H0z"/>
    </clipPath>
  </defs>
</svg>
