<svg xmlns="http://www.w3.org/2000/svg" width="202" height="202" fill="none" viewBox="0 0 202 202">
  <path fill="#fff" d="m68.538 36.99-6.294-6.294a4.248 4.248 0 0 0-6.236.231c-8.978 10.422-14.434 23.99-14.434 38.8 0 14.81 5.34 28.12 14.175 38.513a4.305 4.305 0 0 0 6.264.259l6.265-6.264c1.53-1.53 1.646-3.984.26-5.688-6.034-7.275-9.643-16.6-9.643-26.82a42.051 42.051 0 0 1 9.874-27.05 4.224 4.224 0 0 0-.231-5.716v.029Zm71.25-6.294-6.294 6.294a4.224 4.224 0 0 0-.231 5.716c6.149 7.304 9.874 16.744 9.874 27.05 0 10.307-3.609 19.516-9.643 26.82-1.386 1.675-1.27 4.129.26 5.688l6.265 6.264a4.258 4.258 0 0 0 6.264-.26c8.834-10.364 14.175-23.817 14.175-38.511 0-14.695-5.456-28.38-14.434-38.801-1.617-1.877-4.504-1.992-6.236-.231v-.029Zm29.416-29.418-6.207 6.207c-1.616 1.616-1.732 4.215-.202 5.889 13.598 14.868 21.883 34.672 21.883 56.353 0 21.681-8.199 41.284-21.623 56.122-1.53 1.675-1.386 4.273.202 5.89l6.178 6.178c1.732 1.732 4.533 1.617 6.207-.202C192.011 119.729 202 95.855 202 69.698c0-26.155-10.133-50.406-26.762-68.392-1.617-1.732-4.388-1.732-6.063-.057l.029.029ZM39.003 7.485l-6.178-6.179c-1.733-1.732-4.533-1.616-6.178.174C10.104 19.436 0 43.456 0 69.756c0 26.3 9.989 50.031 26.358 68.017 1.645 1.818 4.446 1.934 6.207.202l6.178-6.178c1.588-1.588 1.732-4.186.202-5.89-13.453-14.839-21.623-34.557-21.623-56.122a83.432 83.432 0 0 1 21.883-56.353c1.53-1.675 1.414-4.302-.202-5.89v-.057Zm105.319 191.892L110.169 96.891c-1.068-3.234.087-6.871 2.945-8.719 7.304-4.706 11.663-13.54 9.816-23.211-1.675-8.719-8.69-15.763-17.438-17.466-14.319-2.8-26.848 8.112-26.848 21.912 0 7.766 3.955 14.579 9.96 18.592 2.945 1.963 4.36 5.485 3.262 8.834L57.685 199.377h86.637Z"/>
</svg>
