<svg xmlns="http://www.w3.org/2000/svg" width="202" height="202" fill="none" viewBox="0 0 202 202">
  <path fill="#fff" d="m120.038 96.278-1.666-.43-5.404-1.363c-2.752-.657-4.671-2.954-4.671-5.53V75.674c0-2.904-2.222-5.328-5.201-6.01v73.074c2.979-.657 5.201-3.106 5.201-5.985V106.58c0-3.157 2.853-5.757 6.388-5.757.758 0 1.541.126 2.273.378.48.152.959.354 1.439.531 3.712 1.439 7.095 3.358 9.822 5.555.152-.152.303-.303.455-.43 1.389-1.262 3.308-2.07 5.429-2.146-3.51-4.04-8.434-7.02-14.065-8.408v-.025Z"/>
  <path fill="#fff" d="M151.197 57.62a14.186 14.186 0 0 1-14.619-5.024L122.665 34.87c-4.318-5.504-12.019-7.044-18.13-3.636l-4.04 2.273c-6.464 3.61-14.62 1.666-18.735-4.47L67.342 7.6A17.251 17.251 0 0 0 53.051 0c-9.494 0-17.196 7.701-17.196 17.195v164.807c0 14.468 14.898 24.114 28.104 18.205l96.48-43.177a14.21 14.21 0 0 0 8.408-12.979V71.357c0-9.242-8.686-16.034-17.65-13.787v.05Zm-8.534 93.072c0 4.116-3.687 7.423-8.232 7.423h-.378c-4.571 0-8.257-3.383-8.232-7.499l.379-38.582c0-.757.126-1.464.379-2.146-2.273-1.894-5.126-3.611-8.232-4.949v44.642c0 1.49-.934 2.853-2.399 3.51l-25.123 11.362c-2.879 1.313-6.262-.581-6.262-3.51V51.459c0-2.928 3.383-4.822 6.262-3.51l25.123 11.363c1.465.657 2.399 2.02 2.399 3.51v29.972l2.525.656c7.398 1.869 13.686 6.136 17.726 12.019 0 .051.101.177.202.379 2.297 1.313 3.838 3.636 3.838 6.287v38.582l.025-.025Z"/>
</svg>
