<svg xmlns="http://www.w3.org/2000/svg" width="202" height="202" fill="none" viewBox="0 0 202 202">
  <path fill="#fff" d="m161.082 174.379-11.119-16.665c-1.373-2.073-3.285-3.742-5.493-4.873l-21.807-10.904a3.487 3.487 0 0 1-1.965-3.149c0-2.154-.485-4.2-1.346-6.031a50.012 50.012 0 0 0 6.784-3.419c7.781-4.658 14.054-11.362 17.877-19.519.457-1.023-.027-1.642-.269-1.858-.808-.727-1.643-.242-2.612.296-2.208 1.293-8.104 4.658-17.069 3.204-3.661-.592-7.08-2.773-8.911-4.119a144.82 144.82 0 0 0 40.599-9.8c.242-.108.485-.188.727-.296l-6.111 19.923 10.715 57.21Zm-49.942-66.69c-1.507 2.638-7.215 10.069-23.772 11.119-12.654.834-22.4-3.339-26.088-4.9-1.83-.781-2.666-1.131-3.392-.269-.377.457-.35 1.292-.027 1.803 5.734 8.562 14.242 14.916 24.15 18.308a13.603 13.603 0 0 0-.943 5.034 3.488 3.488 0 0 1-1.965 3.15l-21.808 10.904c-2.207 1.131-4.119 2.8-5.492 4.873l-11.738 17.607 10.5-71.614-2.504-5.357c16.853 6.434 34.622 9.692 52.822 9.692 3.446 0 6.865-.108 10.257-.35Z"/>
  <path fill="#fff" d="M173.036 202H28.731l10.366-15.534 17.176-25.765a8.952 8.952 0 0 1 3.446-3.042l21.807-10.904a8.926 8.926 0 0 0 4.927-7.969c0-1.238.27-2.423.727-3.527 3.904.916 7.996 1.4 12.17 1.4 5.141 0 10.149-.727 14.887-2.127a8.758 8.758 0 0 1 1.077 4.254 8.927 8.927 0 0 0 4.927 7.969l21.807 10.904c1.4.7 2.585 1.75 3.446 3.042l17.177 25.765L173.036 202Zm-6.275-115.417c-2.665 1.4-5.411 2.692-8.211 3.93-1.589.7-3.177 1.373-4.792 2.02-16.369 6.542-34.165 10.123-52.876 10.123s-36.507-3.581-52.876-10.123a122.498 122.498 0 0 1-3.285-1.346 146.188 146.188 0 0 1-9.719-4.604l8.239-7.754c-.862-3.984-1.292-8.104-1.292-12.33 0-20.542 10.5-38.634 26.41-49.16l9.235 42.214a3.196 3.196 0 0 0 3.123 2.53c1.938 0 3.419-1.75 3.15-3.661l-6.812-45.85-1.184-7.968A69.941 69.941 0 0 1 100.882 0c8.83 0 17.257 1.642 25.011 4.604l-1.185 7.969-6.811 45.849c-.269 1.911 1.211 3.661 3.15 3.661 1.507 0 2.8-1.05 3.123-2.53l9.234-42.215c15.911 10.527 26.411 28.619 26.411 49.16a58.28 58.28 0 0 1-1.292 12.331l8.238 7.754Zm-53.574 20.945c-.135.027-.296.027-.458.027a1.34 1.34 0 0 0 .135-.296s.107.107.323.269Zm26.626 4.468c-4.873 8.293-12.627 14.727-21.861 18.415-.862.35-1.75.673-2.639.97a35.31 35.31 0 0 1-2.88.861 49.965 49.965 0 0 1-13.085 1.723c-3.634 0-7.188-.377-10.607-1.104a34.06 34.06 0 0 1-2.881-.7 44.301 44.301 0 0 1-2.692-.807c-8.077-2.746-15.211-7.539-20.515-13.973 4.9 1.938 13.811 4.819 24.876 4.119 17.123-1.077 23.692-8.777 25.765-12.169 1.992 1.481 5.95 4.065 10.338 4.765 7.35 1.212 12.842-.538 16.181-2.1Z"/>
  <path fill="#fff" d="M112.864 107.259s-.027.107-.135.296c.162 0 .323 0 .458-.027a3.297 3.297 0 0 1-.323-.269Z"/>
</svg>
