<svg xmlns="http://www.w3.org/2000/svg" width="202" height="202" fill="none" viewBox="0 0 202 202">
  <path fill="#fff" d="M145.744 160.688a8.571 8.571 0 0 0-3.441-3.024l-21.79-10.921a8.934 8.934 0 0 1-4.77-6.386 55.987 55.987 0 0 1-14.596 1.929c-5.056 0-9.957-.677-14.596-1.929a8.932 8.932 0 0 1-4.77 6.386l-21.79 10.921a8.574 8.574 0 0 0-3.44 3.024L29 202h144.294l-27.55-41.312ZM52.353 99.62c4.119 15.509 15.457 28.072 30.157 33.884.808.339 1.616.652 2.45.913a30.64 30.64 0 0 0 2.503.755c4.353 1.252 8.94 1.903 13.684 1.903 4.743 0 9.331-.651 13.684-1.903a30.5 30.5 0 0 0 2.502-.755 27.747 27.747 0 0 0 2.45-.913c14.7-5.812 26.039-18.375 30.157-33.884-15.639 5.474-32.034 8.237-48.793 8.237-16.76 0-33.155-2.763-48.794-8.237Z"/>
  <path fill="#fff" d="M45.655 91.461c.886.365 1.746.73 2.633 1.095.026 0 .078 0 .104.052.912.339 1.825.704 2.737 1.069 15.56 5.786 32.398 8.966 50.018 8.966 17.62 0 34.458-3.18 50.018-8.966.912-.365 1.825-.73 2.737-1.069.026-.026.078-.026.104-.052.886-.365 1.747-.73 2.633-1.095a135.27 135.27 0 0 0 10.4-4.9l-8.263-7.715a58.448 58.448 0 0 0 1.303-12.355c0-20.513-10.504-38.628-26.403-49.158l-9.253 42.225c-.287 1.303-1.356 2.294-2.659 2.45-.599-.078-1.199-.183-1.798-.26a3.181 3.181 0 0 1-1.799-3.337l6.829-45.822 1.173-7.976A69.823 69.823 0 0 0 101.147 0a69.825 69.825 0 0 0-25.022 4.613l1.173 7.976 6.829 45.822a3.18 3.18 0 0 1-1.799 3.336c-.6.078-1.199.183-1.798.261-1.303-.156-2.372-1.147-2.659-2.45l-9.253-42.225c-15.9 10.53-26.403 28.645-26.403 49.158 0 4.249.443 8.367 1.303 12.355l-8.263 7.715a135.194 135.194 0 0 0 10.4 4.9Z"/>
</svg>
